<svg xmlns="http://www.w3.org/2000/svg" version="1.1" xmlns:xlink="http://www.w3.org/1999/xlink" xmlns:svgjs="http://svgjs.dev/svgjs" width="2000" height="383" viewBox="0 0 2000 383"><g transform="matrix(1,0,0,1,-1.2121212121212466,0.35570591241145166)"><svg viewBox="0 0 396 76" data-background-color="#ffffff" preserveAspectRatio="xMidYMid meet" height="383" width="2000" xmlns="http://www.w3.org/2000/svg" xmlns:xlink="http://www.w3.org/1999/xlink"><g id="tight-bounds" transform="matrix(1,0,0,1,0.2400000000000091,-0.0705839408440454)"><svg viewBox="0 0 395.52 76.1411678816881" height="76.1411678816881" width="395.52"><g><svg viewBox="0 0 519.1640649309442 99.94376574142052" height="76.1411678816881" width="395.52"><g><rect width="3.631183959361476" height="86.78185158444616" x="110.5071638004794" y="6.580957078487181" fill="#000000" opacity="1" stroke-width="0" stroke="transparent" fill-opacity="1" class="rect-qz-0" data-fill-palette-color="primary" rx="1%" id="qz-0" data-palette-color="#0c0c0c"></rect></g><g transform="matrix(1,0,0,1,123.64406493094423,13.81277804385769)"><svg viewBox="0 0 395.52 72.31820965370514" height="72.31820965370514" width="395.52"><g id="textblocktransform"><svg viewBox="0 0 395.52 72.31820965370514" height="72.31820965370514" width="395.52" id="textblock"><g><svg viewBox="0 0 395.52 40.26549573486225" height="40.26549573486225" width="395.52"><g transform="matrix(1,0,0,1,0,0)"><svg width="395.52" viewBox="4.25 -35.9 357.52 36.4" height="40.26549573486225" data-palette-color="#0c0c0c"><path d="M16.6 0L16.6 0 4.25 0 4.25-34.6 16.6-34.6Q25.05-34.6 27.8-27.9L27.8-27.9Q29.4-24.05 29.4-17.8L29.4-17.8Q29.4-4.75 22.9-1.35L22.9-1.35Q20.3 0 16.6 0ZM25.45-17.8L25.45-17.8Q25.45-27.75 21-30.2L21-30.2Q19.2-31.2 16.6-31.2L16.6-31.2 8.1-31.2 8.1-3.4 16.6-3.4Q25.45-3.4 25.45-17.8ZM39.6 0L35.85 0 35.85-25 39.55-25 39.55-21.6Q43.9-24.6 48.7-25.55L48.7-25.55 48.7-21.75Q46.6-21.35 44.32-20.5 42.05-19.65 40.85-19L40.85-19 39.6-18.35 39.6 0ZM69.65-3.1L69.65-3.1 71.09-3.25 71.2-0.3Q65.5 0.5 61.45 0.5L61.45 0.5Q56.05 0.5 53.8-2.63 51.55-5.75 51.55-12.35L51.55-12.35Q51.55-25.5 62-25.5L62-25.5Q67.05-25.5 69.55-22.68 72.05-19.85 72.05-13.8L72.05-13.8 71.84-10.95 55.34-10.95Q55.34-6.8 56.84-4.8 58.34-2.8 62.07-2.8 65.8-2.8 69.65-3.1ZM55.3-13.95L68.3-13.95Q68.3-18.55 66.82-20.45 65.34-22.35 62.02-22.35 58.7-22.35 57.02-20.35 55.34-18.35 55.3-13.95L55.3-13.95ZM95.54-17.45L95.54-17.45 95.54-4.65Q95.69-2.8 98.44-2.45L98.44-2.45 98.29 0.5Q94.34 0.5 92.34-1.5L92.34-1.5Q87.84 0.5 83.34 0.5L83.34 0.5Q79.89 0.5 78.09-1.45 76.29-3.4 76.29-7.05 76.29-10.7 78.14-12.43 79.99-14.15 83.94-14.55L83.94-14.55 91.79-15.3 91.79-17.45Q91.79-20 90.69-21.1 89.59-22.2 87.69-22.2L87.69-22.2Q83.69-22.2 79.39-21.7L79.39-21.7 77.84-21.55 77.69-24.4Q83.19-25.5 87.44-25.5 91.69-25.5 93.62-23.55 95.54-21.6 95.54-17.45ZM80.14-7.25L80.14-7.25Q80.14-2.65 83.94-2.65L83.94-2.65Q87.34-2.65 90.64-3.8L90.64-3.8 91.79-4.2 91.79-12.45 84.39-11.75Q82.14-11.55 81.14-10.45 80.14-9.35 80.14-7.25ZM106.69-20.3L106.69 0 102.94 0 102.94-25 106.64-25 106.64-23.25Q110.39-25.5 113.94-25.5L113.94-25.5Q118.59-25.5 120.44-22.95L120.44-22.95Q122.09-23.95 124.72-24.73 127.34-25.5 129.34-25.5L129.34-25.5Q134.34-25.5 136.06-22.83 137.79-20.15 137.79-13.2L137.79-13.2 137.79 0 134.04 0 134.04-13.1Q134.04-18.3 133.04-20.23 132.04-22.15 128.79-22.15L128.79-22.15Q127.14-22.15 125.39-21.68 123.64-21.2 122.69-20.75L122.69-20.75 121.74-20.3Q122.39-18.65 122.39-13L122.39-13 122.39 0 118.64 0 118.64-12.9Q118.64-18.3 117.67-20.23 116.69-22.15 113.39-22.15L113.39-22.15Q111.79-22.15 110.12-21.68 108.44-21.2 107.54-20.75L107.54-20.75 106.69-20.3ZM164.44-3.45L164.44 0 145.39 0 145.39-34.6 149.24-34.6 149.24-3.45 164.44-3.45ZM186.34-17.45L186.34-17.45 186.34-4.65Q186.49-2.8 189.24-2.45L189.24-2.45 189.09 0.5Q185.14 0.5 183.14-1.5L183.14-1.5Q178.64 0.5 174.14 0.5L174.14 0.5Q170.69 0.5 168.89-1.45 167.09-3.4 167.09-7.05 167.09-10.7 168.94-12.43 170.79-14.15 174.74-14.55L174.74-14.55 182.59-15.3 182.59-17.45Q182.59-20 181.49-21.1 180.39-22.2 178.49-22.2L178.49-22.2Q174.49-22.2 170.19-21.7L170.19-21.7 168.64-21.55 168.49-24.4Q173.99-25.5 178.24-25.5 182.49-25.5 184.41-23.55 186.34-21.6 186.34-17.45ZM170.94-7.25L170.94-7.25Q170.94-2.65 174.74-2.65L174.74-2.65Q178.14-2.65 181.44-3.8L181.44-3.8 182.59-4.2 182.59-12.45 175.19-11.75Q172.94-11.55 171.94-10.45 170.94-9.35 170.94-7.25ZM197.48-20.3L197.48 0 193.73 0 193.73-25 197.43-25 197.43-23.25Q201.48-25.5 205.18-25.5L205.18-25.5Q210.18-25.5 211.91-22.8 213.63-20.1 213.63-13.2L213.63-13.2 213.63 0 209.93 0 209.93-13.1Q209.93-18.3 208.91-20.23 207.88-22.15 204.53-22.15L204.53-22.15Q202.93-22.15 201.16-21.68 199.38-21.2 198.43-20.75L198.43-20.75 197.48-20.3ZM236.08-35.9L239.78-35.9 239.78 0 236.08 0 236.08-1.7Q232.23 0.5 228.48 0.5L228.48 0.5Q226.48 0.5 224.98 0 223.48-0.5 222.18-1.8L222.18-1.8Q219.48-4.5 219.48-11.78 219.48-19.05 221.91-22.28 224.33-25.5 229.93-25.5L229.93-25.5Q232.83-25.5 236.08-24.85L236.08-24.85 236.08-35.9ZM225.08-4.5Q225.88-3.55 226.78-3.2 227.68-2.85 229.11-2.85 230.53-2.85 232.31-3.33 234.08-3.8 235.08-4.25L235.08-4.25 236.08-4.7 236.08-21.65Q232.88-22.25 230.13-22.25L230.13-22.25Q226.33-22.25 224.83-19.83 223.33-17.4 223.33-12.3L223.33-12.3Q223.33-6.5 225.08-4.5L225.08-4.5ZM262.53 0L258.68 0 258.68-34.6 265.63-34.6 275.43-5.35 285.23-34.6 292.18-34.6 292.18 0 288.33 0 288.33-30.5 287.63-30.5 277.58-1.25 273.28-1.25 263.23-30.5 262.53-30.5 262.53 0ZM317.67-17.45L317.67-17.45 317.67-4.65Q317.82-2.8 320.57-2.45L320.57-2.45 320.42 0.5Q316.47 0.5 314.47-1.5L314.47-1.5Q309.97 0.5 305.47 0.5L305.47 0.5Q302.02 0.5 300.22-1.45 298.42-3.4 298.42-7.05 298.42-10.7 300.27-12.43 302.12-14.15 306.07-14.55L306.07-14.55 313.92-15.3 313.92-17.45Q313.92-20 312.82-21.1 311.72-22.2 309.82-22.2L309.82-22.2Q305.82-22.2 301.52-21.7L301.52-21.7 299.97-21.55 299.82-24.4Q305.32-25.5 309.57-25.5 313.82-25.5 315.75-23.55 317.67-21.6 317.67-17.45ZM302.27-7.25L302.27-7.25Q302.27-2.65 306.07-2.65L306.07-2.65Q309.47-2.65 312.77-3.8L312.77-3.8 313.92-4.2 313.92-12.45 306.52-11.75Q304.27-11.55 303.27-10.45 302.27-9.35 302.27-7.25ZM328.82 0L325.07 0 325.07-25 328.77-25 328.77-21.6Q333.12-24.6 337.92-25.55L337.92-25.55 337.92-21.75Q335.82-21.35 333.55-20.5 331.27-19.65 330.07-19L330.07-19 328.82-18.35 328.82 0ZM346.12-11.45L346.12 0 342.37 0 342.37-35.9 346.12-35.9 346.12-14.7 350.02-14.9 357.17-25 361.42-25 353.27-13.5 361.77 0 357.52 0 350.07-11.6 346.12-11.45Z" opacity="1" transform="matrix(1,0,0,1,0,0)" fill="#000000" class="wordmark-text-0" data-fill-palette-color="primary" id="text-0"></path></svg></g></svg></g><g transform="matrix(1,0,0,1,0,49.77121290596559)"><svg viewBox="0 0 341.92704 22.54699674773956" height="22.54699674773956" width="341.92704"><g transform="matrix(1,0,0,1,0,0)"><svg width="341.92704" viewBox="2.49 -41.99 805.201329787234 53.1" height="22.54699674773956" data-palette-color="#060606"><path d="M14.26-38.48Q12.38-38.48 11.4-37.66 10.42-36.84 10.42-34.44 10.42-32.03 11.33-29.05L11.33-29.05 18.24-29.05 18.24-25.66 11.28-25.66 11.28 0 7.35 0 7.35-25.66 2.49-25.66 2.49-28.66 7.3-29.05Q6.98-29.71 6.69-31.91 6.4-34.11 6.4-35.06L6.4-35.06Q6.4-41.99 14.5-41.99L14.5-41.99Q17.43-41.99 20.04-41.36L20.04-41.36 19.31-37.72Q16.14-38.48 14.26-38.48ZM29.2-36.01L29.2-36.01Q27.56-36.01 27.1-36.47L27.1-36.47Q26.36-37.23 26.36-38.56 26.36-39.89 26.52-40.47 26.68-41.04 27-41.36L27-41.36Q27.59-41.94 28.79-41.94 30-41.94 30.53-41.82 31.05-41.7 31.39-41.36L31.39-41.36Q31.98-40.77 31.98-39.44 31.98-38.11 31.85-37.54 31.71-36.96 31.39-36.62L31.39-36.62Q30.78-36.01 29.2-36.01ZM27.27 0L27.22-29.05 31.22-29.05 31.22 0 27.27 0ZM56.71-25.73L56.71-25.73Q51.95-25.73 47.02-22.92L47.02-22.92 47.02 0 42.96 0 42.96-29.05 46.53-29.05 46.92-26.05Q49.58-28.22 53.54-29.15L53.54-29.15Q55.15-29.54 57.32-29.54 59.49-29.54 61.15-29.04 62.81-28.54 63.79-27.44L63.79-27.44Q65.57-25.46 65.57-20.24L65.57-20.24 65.57 0 61.47 0 61.47-19.48Q61.47-23 60.79-24.01 60.1-25.02 59.16-25.38 58.22-25.73 56.71-25.73ZM95.72 0.1L95.13-3.25Q89.98 0.49 84.66 0.49L84.66 0.49Q78.78 0.49 76.82-3.83L76.82-3.83Q75.7-6.27 75.57-9 75.43-11.72 75.43-13.78 75.43-15.84 75.47-17.94 75.51-20.04 75.77-21.83 76.04-23.61 76.62-25.04 77.19-26.46 78.26-27.47L78.26-27.47Q80.49-29.54 85.6-29.54 90.72-29.54 94.84-27.76L94.84-27.76 94.84-41.55 98.89-41.94 98.89-13.35Q98.89-4.93 99.36-0.2L99.36-0.2 95.72 0.1ZM94.82-13.55L94.84-24.41Q90.45-25.88 86.35-25.88L86.35-25.88Q83.37-25.88 82.41-25.39 81.46-24.9 80.96-24.12 80.46-23.34 80.14-21.97L80.14-21.97Q79.58-19.41 79.58-13.53L79.58-13.53 79.58-12.99Q79.58-7.5 80.78-5.4L80.78-5.4Q82.07-3.17 85.59-3.17L85.59-3.17 85.95-3.17Q89.32-3.17 93.13-5.32L93.13-5.32Q94.18-5.91 94.94-6.49L94.94-6.49 94.94-6.54Q94.82-8.81 94.82-13.55L94.82-13.55ZM120.3 10.21L121.4 7.03Q123.18 7.67 124.32 7.67 125.45 7.67 125.81 7.6 126.16 7.54 126.53 7.35L126.53 7.35Q127.38 6.88 127.8 5.83L127.8 5.83Q128.82 3.34 129.58 0.37L129.58 0.37 118.37-29.05 122.89-29.05 130.46-7.64 131.6-3.88 132.65-7.67 139.34-29.05 143.59-29.05 131.34 6.88Q129.99 11.08 125.13 11.08L125.13 11.08Q122.06 11.08 120.3 10.21L120.3 10.21ZM150.28-14.45L150.28-14.45Q150.28-20 150.84-22.19 151.4-24.39 152.22-25.67 153.04-26.95 154.43-27.81L154.43-27.81Q157.21-29.54 162.66-29.54L162.66-29.54Q170.52-29.54 172.76-25.66L172.76-25.66Q174.11-23.32 174.3-19.04L174.3-19.04Q174.37-17.02 174.37-14.58 174.37-12.13 174.22-10.02 174.06-7.91 173.59-6.23 173.13-4.54 172.3-3.28 171.47-2.03 170.1-1.17L170.1-1.17Q167.42 0.49 162.27 0.49L162.27 0.49Q154.55 0.49 152.13-3.32L152.13-3.32Q150.64-5.69 150.4-9.96L150.4-9.96Q150.28-12.01 150.28-14.45ZM156.92-4.27Q157.8-3.61 159.13-3.28 160.46-2.95 162.77-2.95 165.07-2.95 166.65-3.61 168.22-4.27 169.02-5.73 169.81-7.18 170.02-9.5 170.22-11.82 170.22-14.89 170.22-17.97 170.04-20.02 169.86-22.07 169.13-23.41L169.13-23.41Q167.66-26.05 162.61-26.05L162.61-26.05Q157.26-26.05 155.65-23.41L155.65-23.41Q154.84-22.07 154.62-20 154.4-17.92 154.4-15.48 154.4-13.04 154.46-11.34 154.53-9.64 154.78-8.29 155.04-6.93 155.54-5.93 156.04-4.93 156.92-4.27ZM206.38-29.05L206.38-12.79Q206.38-4.74 206.84-0.2L206.84-0.2 203.21 0.1 202.62-3.34Q199.76-0.98 195.95 0.07L195.95 0.07Q194.44 0.49 192.35 0.49 190.27 0.49 188.62-0.01 186.97-0.51 185.99-1.61L185.99-1.61Q184.21-3.59 184.21-8.81L184.21-8.81 184.21-29.05 188.31-29.05 188.31-9.47Q188.31-5.96 189-4.94 189.68-3.93 190.62-3.58 191.56-3.22 192.85-3.22 194.15-3.22 195.36-3.43 196.56-3.64 197.79-4.03L197.79-4.03Q200.35-4.86 202.42-6.3L202.42-6.3 202.42-6.32Q202.33-8.18 202.33-13.55L202.33-13.55 202.33-29.05 206.38-29.05ZM228.13-25.51L228.13-25.51Q225-25.51 221.76-22.39L221.76-22.39 221.76 0 217.7 0 217.7-29.05 221.27-29.05 221.66-25.2Q222.81-26.98 224.14-27.98 225.47-28.98 226.32-29.2L226.32-29.2Q227.54-29.54 228.64-29.54 229.74-29.54 231.4-29.1L231.4-29.1 231.03-25.22Q229.79-25.51 228.13-25.51ZM254.93-1.73L254.93-1.73 254.93 11.11 250.88 11.11 250.88-29.05 254.17-29.05 254.64-26.05Q257.49-28.2 262.08-29.2L262.08-29.2Q263.74-29.54 265.7-29.54 267.65-29.54 269.15-29.03 270.65-28.52 271.63-27.6 272.61-26.68 273.14-25.42 273.68-24.15 273.95-22.66L273.95-22.66Q274.29-20.61 274.29-16.11L274.29-16.11 274.29-15.55Q274.29-9.84 273.9-7.64 273.51-5.44 272.88-4.02 272.24-2.59 271.12-1.59L271.12-1.59Q268.8 0.49 263.94 0.49 259.08 0.49 254.93-1.73ZM254.93-22.92L254.93-5.08Q259.08-3.17 263.65-3.17L263.65-3.17Q266.63-3.17 267.99-4.27L267.99-4.27Q269.85-5.79 270.07-11.33L270.07-11.33Q270.14-13.16 270.14-15.53L270.14-15.53 270.14-16.06Q270.14-21.68 269.16-23.58L269.16-23.58Q268.07-25.76 264.62-25.76L264.62-25.76 264.26-25.76Q260.67-25.76 256.81-23.97L256.81-23.97Q255.69-23.46 254.93-22.92L254.93-22.92ZM305.88-5.03L307.08-1.54Q302.02 0.49 295.92 0.49L295.92 0.49Q292.38 0.49 289.91-0.24L289.91-0.24Q285.98-1.37 284.69-4.88L284.69-4.88Q283.49-8.18 283.49-14.65L283.49-14.65 283.49-15.89Q283.49-23.63 286.72-26.76L286.72-26.76Q289.62-29.54 296.41-29.54L296.41-29.54Q303.02-29.54 305.44-26.27L305.44-26.27Q306.61-24.68 306.99-22.42 307.37-20.17 307.37-18.12L307.37-18.12Q307.37-14.92 307.22-13.16L307.22-13.16Q303.78-13.01 301.05-13.01L301.05-13.01Q301.05-13.01 297.12-13.01L297.12-13.01Q290.96-13.01 287.64-13.55L287.64-13.55Q287.64-7.93 289.06-5.71L289.06-5.71Q290.79-3 295.97-3 301.14-3 305.88-5.03L305.88-5.03ZM287.64-16.41L303.24-16.41 303.24-18.75Q303.24-22.58 301.75-24.22L301.75-24.22Q300.09-26.05 296.02-26.05L296.02-26.05Q291.13-26.05 289.35-23.93L289.35-23.93Q287.64-21.9 287.64-16.41L287.64-16.41ZM328.05-25.51L328.05-25.51Q324.92-25.51 321.67-22.39L321.67-22.39 321.67 0 317.62 0 317.62-29.05 321.19-29.05 321.58-25.2Q322.72-26.98 324.05-27.98 325.39-28.98 326.24-29.2L326.24-29.2Q327.46-29.54 328.56-29.54 329.66-29.54 331.32-29.1L331.32-29.1 330.95-25.22Q329.71-25.51 328.05-25.51ZM347.28-38.48Q345.4-38.48 344.43-37.66 343.45-36.84 343.45-34.44 343.45-32.03 344.35-29.05L344.35-29.05 351.26-29.05 351.26-25.66 344.3-25.66 344.3 0 340.37 0 340.37-25.66 335.51-25.66 335.51-28.66 340.32-29.05Q340.01-29.71 339.71-31.91 339.42-34.11 339.42-35.06L339.42-35.06Q339.42-41.99 347.53-41.99L347.53-41.99Q350.46-41.99 353.07-41.36L353.07-41.36 352.34-37.72Q349.16-38.48 347.28-38.48ZM380.87-5.03L382.07-1.54Q377.02 0.49 370.91 0.49L370.91 0.49Q367.37 0.49 364.91-0.24L364.91-0.24Q360.98-1.37 359.68-4.88L359.68-4.88Q358.49-8.18 358.49-14.65L358.49-14.65 358.49-15.89Q358.49-23.63 361.71-26.76L361.71-26.76Q364.61-29.54 371.4-29.54L371.4-29.54Q378.02-29.54 380.43-26.27L380.43-26.27Q381.61-24.68 381.98-22.42 382.36-20.17 382.36-18.12L382.36-18.12Q382.36-14.92 382.22-13.16L382.22-13.16Q378.77-13.01 376.04-13.01L376.04-13.01Q376.04-13.01 372.11-13.01L372.11-13.01Q365.96-13.01 362.64-13.55L362.64-13.55Q362.64-7.93 364.05-5.71L364.05-5.71Q365.79-3 370.96-3 376.14-3 380.87-5.03L380.87-5.03ZM362.64-16.41L378.24-16.41 378.24-18.75Q378.24-22.58 376.75-24.22L376.75-24.22Q375.09-26.05 371.01-26.05L371.01-26.05Q366.13-26.05 364.34-23.93L364.34-23.93Q362.64-21.9 362.64-16.41L362.64-16.41ZM411.58-4.59L412.8-1.29Q409.41 0.49 403.5 0.49L403.5 0.49Q400.01 0.49 398.38-0.05L398.38-0.05Q394.2-1.46 392.91-4.86L392.91-4.86Q392-7.23 391.86-9.96 391.71-12.7 391.71-14.58 391.71-16.46 391.81-18.25 391.91-20.04 392.28-21.7 392.66-23.36 393.44-24.79 394.23-26.22 395.57-27.29L395.57-27.29Q398.47-29.54 403.92-29.54L403.92-29.54Q407.92-29.54 411.29-28.37L411.29-28.37Q412.19-28.08 412.66-27.81L412.66-27.81 411.44-24.19Q406.75-26 403.76-26 400.77-26 399.36-25.32 397.96-24.63 397.18-23.24L397.18-23.24Q395.86-20.85 395.86-14.45L395.86-14.45Q395.86-11.89 396.03-9.78 396.2-7.67 396.89-6.15L396.89-6.15Q398.33-3.03 402.83-3.03 407.34-3.03 411.58-4.59L411.58-4.59ZM434.73-4.57L436.12-1.39Q432.14 0.49 428.77 0.49L428.77 0.49Q422.67 0.49 421.84-4.74L421.84-4.74Q421.64-5.98 421.64-8.35L421.64-8.35 421.64-25.66 418.12-25.66 418.12-28.66 421.64-29.05 422.27-35.69 425.67-35.69 425.67-29.05 434.14-29.05 434.14-25.66 425.67-25.66 425.67-8.42Q425.67-5.42 426.11-4.59L426.11-4.59Q426.91-3.08 429.33-3.08 431.75-3.08 434.73-4.57L434.73-4.57ZM453.42-2.39L455.18-5.76Q460.21-2.95 465.29-2.95L465.29-2.95Q469.51-2.95 470.24-5.96L470.24-5.96Q470.49-6.98 470.49-8.46 470.49-9.94 470.15-10.75 469.8-11.57 469-11.98 468.19-12.38 466.86-12.57 465.53-12.77 463.48-13.12 461.43-13.48 459.72-13.92 458.01-14.36 456.82-15.19L456.82-15.19Q454.28-16.97 454.37-21.19L454.37-21.19 454.37-21.8Q454.37-26.25 457.3-28.13L457.3-28.13Q460.14-29.98 466.65-29.39L466.65-29.39Q471.1-28.98 473.73-27.86L473.73-27.86 472.59-24.17Q469.66-25.42 465.56-25.98L465.56-25.98Q464.29-26.15 463.18-26.15 462.06-26.15 461.16-25.98 460.26-25.81 459.65-25.34L459.65-25.34Q458.48-24.39 458.43-21.8L458.43-21.8Q458.35-18.75 460.14-17.92L460.14-17.92Q461.84-17.11 464.19-16.81 466.53-16.5 468.02-16.27 469.51-16.04 470.73-15.65 471.95-15.26 472.83-14.4L472.83-14.4Q474.66-12.67 474.61-8.37L474.61-8.37Q474.49-0.88 468.36 0.17L468.36 0.17Q466.51 0.49 464.65 0.49 462.8 0.49 461.25 0.26 459.7 0.02 458.28-0.39L458.28-0.39Q455.59-1.15 453.42-2.39L453.42-2.39ZM488.18-1.73L488.18-1.73 488.18 11.11 484.13 11.11 484.13-29.05 487.43-29.05 487.89-26.05Q490.75-28.2 495.34-29.2L495.34-29.2Q497-29.54 498.95-29.54 500.9-29.54 502.41-29.03 503.91-28.52 504.88-27.6 505.86-26.68 506.4-25.42 506.93-24.15 507.2-22.66L507.2-22.66Q507.55-20.61 507.55-16.11L507.55-16.11 507.55-15.55Q507.55-9.84 507.15-7.64 506.76-5.44 506.13-4.02 505.49-2.59 504.37-1.59L504.37-1.59Q502.05 0.49 497.19 0.49 492.34 0.49 488.18-1.73ZM488.18-22.92L488.18-5.08Q492.34-3.17 496.9-3.17L496.9-3.17Q499.88-3.17 501.25-4.27L501.25-4.27Q503.1-5.79 503.32-11.33L503.32-11.33Q503.39-13.16 503.39-15.53L503.39-15.53 503.39-16.06Q503.39-21.68 502.42-23.58L502.42-23.58Q501.32-25.76 497.88-25.76L497.88-25.76 497.51-25.76Q493.92-25.76 490.06-23.97L490.06-23.97Q488.94-23.46 488.18-22.92L488.18-22.92ZM539.82-19.41L539.82-10.3Q539.82-5.44 540.28-0.2L540.28-0.2 536.67 0.1 536.06-3.3Q532.96-0.81 527.86 0.17L527.86 0.17Q526.2 0.49 524.9 0.49 523.61 0.49 522.62 0.37 521.63 0.24 520.71-0.11 519.8-0.46 519.02-1.1 518.24-1.73 517.65-2.78L517.65-2.78Q516.41-5 516.41-8.12 516.41-11.23 516.86-12.95 517.31-14.67 518.36-15.82L518.36-15.82Q520.43-18.09 525.34-18.09 530.25-18.09 535.81-16.24L535.81-16.24 535.81-19.41Q535.81-24.71 531.44-25.68L531.44-25.68Q530.03-26 528.2-26L528.2-26Q524.02-26 519.53-24.34L519.53-24.34 518.63-27.86Q519.87-28.69 524.97-29.35L524.97-29.35Q526.59-29.54 528.84-29.54 531.1-29.54 533.28-29 535.45-28.47 536.89-27.25L536.89-27.25Q539.82-24.83 539.82-19.41L539.82-19.41ZM535.72-13.18L535.72-13.18Q530-14.62 525.17-14.62L525.17-14.62Q522.19-14.62 521.21-12.92L521.21-12.92Q520.56-11.72 520.56-9.38 520.56-7.03 520.81-5.98 521.07-4.93 521.65-4.25L521.65-4.25Q522.8-2.95 525.44-2.95L525.44-2.95Q529.56-2.95 533.62-5.08L533.62-5.08Q534.86-5.71 535.86-6.49L535.86-6.49Q535.72-9.13 535.72-13.18ZM569.84-4.59L571.07-1.29Q567.67 0.49 561.76 0.49L561.76 0.49Q558.27 0.49 556.64-0.05L556.64-0.05Q552.46-1.46 551.17-4.86L551.17-4.86Q550.26-7.23 550.12-9.96 549.97-12.7 549.97-14.58 549.97-16.46 550.07-18.25 550.17-20.04 550.55-21.7 550.92-23.36 551.71-24.79 552.49-26.22 553.83-27.29L553.83-27.29Q556.73-29.54 562.18-29.54L562.18-29.54Q566.18-29.54 569.55-28.37L569.55-28.37Q570.46-28.08 570.92-27.81L570.92-27.81 569.7-24.19Q565.01-26 562.02-26 559.03-26 557.63-25.32 556.22-24.63 555.44-23.24L555.44-23.24Q554.12-20.85 554.12-14.45L554.12-14.45Q554.12-11.89 554.29-9.78 554.46-7.67 555.15-6.15L555.15-6.15Q556.59-3.03 561.09-3.03 565.6-3.03 569.84-4.59L569.84-4.59ZM601.63-5.03L602.83-1.54Q597.77 0.49 591.67 0.49L591.67 0.49Q588.13 0.49 585.66-0.24L585.66-0.24Q581.73-1.37 580.44-4.88L580.44-4.88Q579.24-8.18 579.24-14.65L579.24-14.65 579.24-15.89Q579.24-23.63 582.46-26.76L582.46-26.76Q585.37-29.54 592.16-29.54L592.16-29.54Q598.77-29.54 601.19-26.27L601.19-26.27Q602.36-24.68 602.74-22.42 603.12-20.17 603.12-18.12L603.12-18.12Q603.12-14.92 602.97-13.16L602.97-13.16Q599.53-13.01 596.8-13.01L596.8-13.01Q596.8-13.01 592.86-13.01L592.86-13.01Q586.71-13.01 583.39-13.55L583.39-13.55Q583.39-7.93 584.81-5.71L584.81-5.71Q586.54-3 591.72-3 596.89-3 601.63-5.03L601.63-5.03ZM583.39-16.41L598.99-16.41 598.99-18.75Q598.99-22.58 597.5-24.22L597.5-24.22Q595.84-26.05 591.77-26.05L591.77-26.05Q586.88-26.05 585.1-23.93L585.1-23.93Q583.39-21.9 583.39-16.41L583.39-16.41ZM631.7 0L622.67-29.05 627.02-29.05 633.17-7.71 634.27-3.05 635.07-6.96 641.42-29.05 645.42-29.05 651.67-7.71 652.75-3 653.53-6.98 659.58-29.05 663.98-29.05 655.38 0 650.04 0 644.47-18.63 643.35-24.34 642.35-18.63 636.81 0 631.7 0ZM674.52-36.01L674.52-36.01Q672.89-36.01 672.42-36.47L672.42-36.47Q671.69-37.23 671.69-38.56 671.69-39.89 671.85-40.47 672.01-41.04 672.33-41.36L672.33-41.36Q672.91-41.94 674.12-41.94 675.33-41.94 675.85-41.82 676.38-41.7 676.72-41.36L676.72-41.36Q677.31-40.77 677.31-39.44 677.31-38.11 677.17-37.54 677.04-36.96 676.72-36.62L676.72-36.62Q676.11-36.01 674.52-36.01ZM672.59 0L672.54-29.05 676.55-29.05 676.55 0 672.59 0ZM701.2-4.57L702.6-1.39Q698.62 0.49 695.25 0.49L695.25 0.49Q689.14 0.49 688.31-4.74L688.31-4.74Q688.12-5.98 688.12-8.35L688.12-8.35 688.12-25.66 684.6-25.66 684.6-28.66 688.12-29.05 688.75-35.69 692.15-35.69 692.15-29.05 700.62-29.05 700.62-25.66 692.15-25.66 692.15-8.42Q692.15-5.42 692.59-4.59L692.59-4.59Q693.39-3.08 695.81-3.08 698.23-3.08 701.2-4.57L701.2-4.57ZM722.86-25.76L722.86-25.76Q718-25.76 713.21-22.95L713.21-22.95 713.21 0 709.16 0 709.16-41.55 713.12-41.94 713.12-26.05Q715.63-28.2 719.66-29.15L719.66-29.15Q721.27-29.54 723.47-29.54 725.66-29.54 727.33-29.04 728.99-28.54 729.96-27.44L729.96-27.44Q731.72-25.46 731.72-20.24L731.72-20.24 731.72 0 727.62 0 727.62-19.51Q727.62-23.02 726.93-24.04 726.25-25.05 725.31-25.4 724.37-25.76 722.86-25.76ZM776.88-29.05L776.88-12.79Q776.88-4.74 777.34-0.2L777.34-0.2 773.71 0.1 773.12-3.34Q770.26-0.98 766.46 0.07L766.46 0.07Q764.94 0.49 762.85 0.49 760.77 0.49 759.12-0.01 757.47-0.51 756.49-1.61L756.49-1.61Q754.71-3.59 754.71-8.81L754.71-8.81 754.71-29.05 758.81-29.05 758.81-9.47Q758.81-5.96 759.5-4.94 760.18-3.93 761.12-3.58 762.06-3.22 763.36-3.22 764.65-3.22 765.86-3.43 767.07-3.64 768.29-4.03L768.29-4.03Q770.85-4.86 772.93-6.3L772.93-6.3 772.93-6.32Q772.83-8.18 772.83-13.55L772.83-13.55 772.83-29.05 776.88-29.05ZM786.5-2.39L788.26-5.76Q793.28-2.95 798.36-2.95L798.36-2.95Q802.59-2.95 803.32-5.96L803.32-5.96Q803.56-6.98 803.56-8.46 803.56-9.94 803.22-10.75 802.88-11.57 802.07-11.98 801.27-12.38 799.94-12.57 798.61-12.77 796.56-13.12 794.51-13.48 792.8-13.92 791.09-14.36 789.89-15.19L789.89-15.19Q787.35-16.97 787.45-21.19L787.45-21.19 787.45-21.8Q787.45-26.25 790.38-28.13L790.38-28.13Q793.21-29.98 799.73-29.39L799.73-29.39Q804.17-28.98 806.81-27.86L806.81-27.86 805.66-24.17Q802.73-25.42 798.63-25.98L798.63-25.98Q797.36-26.15 796.25-26.15 795.14-26.15 794.24-25.98 793.33-25.81 792.72-25.34L792.72-25.34Q791.55-24.39 791.5-21.8L791.5-21.8Q791.43-18.75 793.21-17.92L793.21-17.92Q794.92-17.11 797.26-16.81 799.61-16.5 801.1-16.27 802.59-16.04 803.81-15.65 805.03-15.26 805.91-14.4L805.91-14.4Q807.74-12.67 807.69-8.37L807.69-8.37Q807.57-0.88 801.44 0.17L801.44 0.17Q799.58 0.49 797.73 0.49 795.87 0.49 794.32 0.26 792.77 0.02 791.36-0.39L791.36-0.39Q788.67-1.15 786.5-2.39L786.5-2.39Z" opacity="1" transform="matrix(1,0,0,1,0,0)" fill="#000000" class="slogan-text-1" data-fill-palette-color="secondary" id="text-1"></path></svg></g></svg></g></svg></g></svg></g><g><svg viewBox="0 0 101.00144662937606 99.94376574142052" height="99.94376574142052" width="101.00144662937606"><g><svg xmlns="http://www.w3.org/2000/svg" xmlns:xlink="http://www.w3.org/1999/xlink" version="1.1" x="0" y="0" viewBox="0.103 0.803 99.88600000000001 98.84" enable-background="new 0 0 100 100" xml:space="preserve" height="99.94376574142052" width="101.00144662937606" class="icon-icon-0" data-fill-palette-color="accent" id="icon-0"><path d="M88.5 64.15L88.381 23h-0.107L49.829 0.803 11.631 23h-0.106l0.183 41.104L12 66.939v0.049l-0.293-2.969L0.103 70.68l50.09 28.963 49.796-28.92L88.5 64.15zM21.015 68.875l-6.403-3.697 0.021-7.363 6.403 3.697L21.015 68.875zM21.057 54.154l-6.403-3.697 0.021-7.358 6.403 3.697L21.057 54.154zM21.099 39.433l-6.403-3.697 0.021-7.358 6.403 3.697L21.099 39.433zM85.293 65.174l-6.404 3.695-0.02-7.357 6.402-3.697L85.293 65.174zM85.25 50.458l-6.402 3.697-0.021-7.363 6.404-3.697L85.25 50.458zM85.188 28.378l0.021 7.358-6.402 3.697-0.021-7.358L85.188 28.378zM72.439 57.855l-6.404 3.695-0.02-7.363 6.402-3.697L72.439 57.855zM53.225 68.947l-0.02-7.363 6.406-3.699 0.021 7.363L53.225 68.947zM59.654 72.605l0.02 7.357-6.406 3.701-0.021-7.359L59.654 72.605zM53.184 54.227l-0.021-7.358 6.408-3.7 0.021 7.358L53.184 54.227zM72.377 35.775l0.021 7.358-6.404 3.697-0.021-7.357L72.377 35.775zM40.334 43.169l6.408 3.699-0.021 7.358-6.408-3.7L40.334 43.169zM40.292 57.891l6.408 3.699-0.021 7.357-6.408-3.699L40.292 57.891zM40.25 72.605l6.409 3.699-0.021 7.365-6.408-3.701L40.25 72.605zM27.528 35.775l6.403 3.697L33.91 46.83l-6.403-3.697L27.528 35.775zM27.486 50.496l6.403 3.697-0.021 7.357-6.404-3.695L27.486 50.496zM33.833 69l0.003-0.047-0.018 7.283-6.396-3.706-0.004-0.009 0.1-7.365L34 68.852v0.055L33.909 69H33.833zM66.088 79.949L66.057 68.91l6.404-3.697 0.031 11.039L66.088 79.949z" fill="#000000" data-fill-palette-color="accent"></path></svg></g></svg></g></svg></g><defs></defs></svg><rect width="395.52" height="76.1411678816881" fill="none" stroke="none" visibility="hidden"></rect></g></svg></g></svg>