<svg xmlns="http://www.w3.org/2000/svg" version="1.1" xmlns:xlink="http://www.w3.org/1999/xlink" xmlns:svgjs="http://svgjs.dev/svgjs" width="2000" height="383" viewBox="0 0 2000 383"><g transform="matrix(1,0,0,1,-1.2121212121212466,-0.42677640493946)"><svg viewBox="0 0 396 76" data-background-color="#ffffff" preserveAspectRatio="xMidYMid meet" height="383" width="2000" xmlns="http://www.w3.org/2000/svg" xmlns:xlink="http://www.w3.org/1999/xlink"><g id="tight-bounds" transform="matrix(1,0,0,1,0.2400000000000091,0.08468670176344517)"><svg viewBox="0 0 395.52 75.83062659647312" height="75.83062659647312" width="395.52"><g><svg viewBox="0 0 518.6531375124616 99.4381887231915" height="75.83062659647312" width="395.52"><g><rect width="3.631183959361476" height="86.3428556207162" x="109.99623638199677" y="6.547666551237654" fill="#085f63" opacity="1" stroke-width="0" stroke="transparent" fill-opacity="1" class="rect-qz-0" data-fill-palette-color="primary" rx="1%" id="qz-0" data-palette-color="#085f63"></rect></g><g transform="matrix(1,0,0,1,123.13313751246159,13.74290451963067)"><svg viewBox="0 0 395.52 71.95237968393016" height="71.95237968393016" width="395.52"><g id="textblocktransform"><svg viewBox="0 0 395.52 71.95237968393016" height="71.95237968393016" width="395.52" id="textblock"><g><svg viewBox="0 0 395.52 40.26549573486225" height="40.26549573486225" width="395.52"><g transform="matrix(1,0,0,1,0,0)"><svg width="395.52" viewBox="4.25 -35.9 357.52 36.4" height="40.26549573486225" data-palette-color="#085f63"><path d="M16.6 0L16.6 0 4.25 0 4.25-34.6 16.6-34.6Q25.05-34.6 27.8-27.9L27.8-27.9Q29.4-24.05 29.4-17.8L29.4-17.8Q29.4-4.75 22.9-1.35L22.9-1.35Q20.3 0 16.6 0ZM25.45-17.8L25.45-17.8Q25.45-27.75 21-30.2L21-30.2Q19.2-31.2 16.6-31.2L16.6-31.2 8.1-31.2 8.1-3.4 16.6-3.4Q25.45-3.4 25.45-17.8ZM39.6 0L35.85 0 35.85-25 39.55-25 39.55-21.6Q43.9-24.6 48.7-25.55L48.7-25.55 48.7-21.75Q46.6-21.35 44.32-20.5 42.05-19.65 40.85-19L40.85-19 39.6-18.35 39.6 0ZM69.65-3.1L69.65-3.1 71.09-3.25 71.2-0.3Q65.5 0.5 61.45 0.5L61.45 0.5Q56.05 0.5 53.8-2.63 51.55-5.75 51.55-12.35L51.55-12.35Q51.55-25.5 62-25.5L62-25.5Q67.05-25.5 69.55-22.68 72.05-19.85 72.05-13.8L72.05-13.8 71.84-10.95 55.34-10.95Q55.34-6.8 56.84-4.8 58.34-2.8 62.07-2.8 65.8-2.8 69.65-3.1ZM55.3-13.95L68.3-13.95Q68.3-18.55 66.82-20.45 65.34-22.35 62.02-22.35 58.7-22.35 57.02-20.35 55.34-18.35 55.3-13.95L55.3-13.95ZM95.54-17.45L95.54-17.45 95.54-4.65Q95.69-2.8 98.44-2.45L98.44-2.45 98.29 0.5Q94.34 0.5 92.34-1.5L92.34-1.5Q87.84 0.5 83.34 0.5L83.34 0.5Q79.89 0.5 78.09-1.45 76.29-3.4 76.29-7.05 76.29-10.7 78.14-12.43 79.99-14.15 83.94-14.55L83.94-14.55 91.79-15.3 91.79-17.45Q91.79-20 90.69-21.1 89.59-22.2 87.69-22.2L87.69-22.2Q83.69-22.2 79.39-21.7L79.39-21.7 77.84-21.55 77.69-24.4Q83.19-25.5 87.44-25.5 91.69-25.5 93.62-23.55 95.54-21.6 95.54-17.45ZM80.14-7.25L80.14-7.25Q80.14-2.65 83.94-2.65L83.94-2.65Q87.34-2.65 90.64-3.8L90.64-3.8 91.79-4.2 91.79-12.45 84.39-11.75Q82.14-11.55 81.14-10.45 80.14-9.35 80.14-7.25ZM106.69-20.3L106.69 0 102.94 0 102.94-25 106.64-25 106.64-23.25Q110.39-25.5 113.94-25.5L113.94-25.5Q118.59-25.5 120.44-22.95L120.44-22.95Q122.09-23.95 124.72-24.73 127.34-25.5 129.34-25.5L129.34-25.5Q134.34-25.5 136.06-22.83 137.79-20.15 137.79-13.2L137.79-13.2 137.79 0 134.04 0 134.04-13.1Q134.04-18.3 133.04-20.23 132.04-22.15 128.79-22.15L128.79-22.15Q127.14-22.15 125.39-21.68 123.64-21.2 122.69-20.75L122.69-20.75 121.74-20.3Q122.39-18.65 122.39-13L122.39-13 122.39 0 118.64 0 118.64-12.9Q118.64-18.3 117.67-20.23 116.69-22.15 113.39-22.15L113.39-22.15Q111.79-22.15 110.12-21.68 108.44-21.2 107.54-20.75L107.54-20.75 106.69-20.3ZM164.44-3.45L164.44 0 145.39 0 145.39-34.6 149.24-34.6 149.24-3.45 164.44-3.45ZM186.34-17.45L186.34-17.45 186.34-4.65Q186.49-2.8 189.24-2.45L189.24-2.45 189.09 0.5Q185.14 0.5 183.14-1.5L183.14-1.5Q178.64 0.5 174.14 0.5L174.14 0.5Q170.69 0.5 168.89-1.45 167.09-3.4 167.09-7.05 167.09-10.7 168.94-12.43 170.79-14.15 174.74-14.55L174.74-14.55 182.59-15.3 182.59-17.45Q182.59-20 181.49-21.1 180.39-22.2 178.49-22.2L178.49-22.2Q174.49-22.2 170.19-21.7L170.19-21.7 168.64-21.55 168.49-24.4Q173.99-25.5 178.24-25.5 182.49-25.5 184.41-23.55 186.34-21.6 186.34-17.45ZM170.94-7.25L170.94-7.25Q170.94-2.65 174.74-2.65L174.74-2.65Q178.14-2.65 181.44-3.8L181.44-3.8 182.59-4.2 182.59-12.45 175.19-11.75Q172.94-11.55 171.94-10.45 170.94-9.35 170.94-7.25ZM197.48-20.3L197.48 0 193.73 0 193.73-25 197.43-25 197.43-23.25Q201.48-25.5 205.18-25.5L205.18-25.5Q210.18-25.5 211.91-22.8 213.63-20.1 213.63-13.2L213.63-13.2 213.63 0 209.93 0 209.93-13.1Q209.93-18.3 208.91-20.23 207.88-22.15 204.53-22.15L204.53-22.15Q202.93-22.15 201.16-21.68 199.38-21.2 198.43-20.75L198.43-20.75 197.48-20.3ZM236.08-35.9L239.78-35.9 239.78 0 236.08 0 236.08-1.7Q232.23 0.5 228.48 0.5L228.48 0.5Q226.48 0.5 224.98 0 223.48-0.5 222.18-1.8L222.18-1.8Q219.48-4.5 219.48-11.78 219.48-19.05 221.91-22.28 224.33-25.5 229.93-25.5L229.93-25.5Q232.83-25.5 236.08-24.85L236.08-24.85 236.08-35.9ZM225.08-4.5Q225.88-3.55 226.78-3.2 227.68-2.85 229.11-2.85 230.53-2.85 232.31-3.33 234.08-3.8 235.08-4.25L235.08-4.25 236.08-4.7 236.08-21.65Q232.88-22.25 230.13-22.25L230.13-22.25Q226.33-22.25 224.83-19.83 223.33-17.4 223.33-12.3L223.33-12.3Q223.33-6.5 225.08-4.5L225.08-4.5ZM262.53 0L258.68 0 258.68-34.6 265.63-34.6 275.43-5.35 285.23-34.6 292.18-34.6 292.18 0 288.33 0 288.33-30.5 287.63-30.5 277.58-1.25 273.28-1.25 263.23-30.5 262.53-30.5 262.53 0ZM317.67-17.45L317.67-17.45 317.67-4.65Q317.82-2.8 320.57-2.45L320.57-2.45 320.42 0.5Q316.47 0.5 314.47-1.5L314.47-1.5Q309.97 0.5 305.47 0.5L305.47 0.5Q302.02 0.5 300.22-1.45 298.42-3.4 298.42-7.05 298.42-10.7 300.27-12.43 302.12-14.15 306.07-14.55L306.07-14.55 313.92-15.3 313.92-17.45Q313.92-20 312.82-21.1 311.72-22.2 309.82-22.2L309.82-22.2Q305.82-22.2 301.52-21.7L301.52-21.7 299.97-21.55 299.82-24.4Q305.32-25.5 309.57-25.5 313.82-25.5 315.75-23.55 317.67-21.6 317.67-17.45ZM302.27-7.25L302.27-7.25Q302.27-2.65 306.07-2.65L306.07-2.65Q309.47-2.65 312.77-3.8L312.77-3.8 313.92-4.2 313.92-12.45 306.52-11.75Q304.27-11.55 303.27-10.45 302.27-9.35 302.27-7.25ZM328.82 0L325.07 0 325.07-25 328.77-25 328.77-21.6Q333.12-24.6 337.92-25.55L337.92-25.55 337.92-21.75Q335.82-21.35 333.55-20.5 331.27-19.65 330.07-19L330.07-19 328.82-18.35 328.82 0ZM346.12-11.45L346.12 0 342.37 0 342.37-35.9 346.12-35.9 346.12-14.7 350.02-14.9 357.17-25 361.42-25 353.27-13.5 361.77 0 357.52 0 350.07-11.6 346.12-11.45Z" opacity="1" transform="matrix(1,0,0,1,0,0)" fill="#085f63" class="wordmark-text-0" data-fill-palette-color="primary" id="text-0"></path></svg></g></svg></g><g transform="matrix(1,0,0,1,0,49.77121290596559)"><svg viewBox="0 0 341.92704 22.181166777964567" height="22.181166777964567" width="341.92704"><g transform="matrix(1,0,0,1,0,0)"><svg width="341.92704" viewBox="5.76 -41.99 818.481329691428 53.1" height="22.181166777964567" data-palette-color="#49beb7"><path d="M5.76 0L5.76-37.35 27.22-37.35 27.22-33.74 9.91-33.74 9.91-19.07 24.93-19.07 24.93-15.48 9.91-15.48 9.91 0 5.76 0ZM37.42-36.01L37.42-36.01Q35.79-36.01 35.32-36.47L35.32-36.47Q34.59-37.23 34.59-38.56 34.59-39.89 34.75-40.47 34.91-41.04 35.23-41.36L35.23-41.36Q35.81-41.94 37.02-41.94 38.23-41.94 38.75-41.82 39.28-41.7 39.62-41.36L39.62-41.36Q40.21-40.77 40.21-39.44 40.21-38.11 40.07-37.54 39.94-36.96 39.62-36.62L39.62-36.62Q39.01-36.01 37.42-36.01ZM35.5 0L35.45-29.05 39.45-29.05 39.45 0 35.5 0ZM64.94-25.73L64.94-25.73Q60.18-25.73 55.24-22.92L55.24-22.92 55.24 0 51.19 0 51.19-29.05 54.76-29.05 55.15-26.05Q57.81-28.22 61.76-29.15L61.76-29.15Q63.37-29.54 65.55-29.54 67.72-29.54 69.38-29.04 71.04-28.54 72.02-27.44L72.02-27.44Q73.8-25.46 73.8-20.24L73.8-20.24 73.8 0 69.7 0 69.7-19.48Q69.7-23 69.01-24.01 68.33-25.02 67.39-25.38 66.45-25.73 64.94-25.73ZM103.95 0.1L103.36-3.25Q98.21 0.49 92.89 0.49L92.89 0.49Q87 0.49 85.05-3.83L85.05-3.83Q83.93-6.27 83.79-9 83.66-11.72 83.66-13.78 83.66-15.84 83.7-17.94 83.73-20.04 84-21.83 84.27-23.61 84.84-25.04 85.42-26.46 86.49-27.47L86.49-27.47Q88.71-29.54 93.83-29.54 98.94-29.54 103.07-27.76L103.07-27.76 103.07-41.55 107.12-41.94 107.12-13.35Q107.12-4.93 107.59-0.2L107.59-0.2 103.95 0.1ZM103.04-13.55L103.07-24.41Q98.67-25.88 94.57-25.88L94.57-25.88Q91.59-25.88 90.64-25.39 89.69-24.9 89.19-24.12 88.69-23.34 88.37-21.97L88.37-21.97Q87.81-19.41 87.81-13.53L87.81-13.53 87.81-12.99Q87.81-7.5 89.01-5.4L89.01-5.4Q90.3-3.17 93.82-3.17L93.82-3.17 94.18-3.17Q97.55-3.17 101.36-5.32L101.36-5.32Q102.41-5.91 103.17-6.49L103.17-6.49 103.17-6.54Q103.04-8.81 103.04-13.55L103.04-13.55ZM137.34 0L137.32-13.79 125.13-37.35 129.68-37.35 137.66-21.31 139.47-17.19 141.25-21.39 149.06-37.35 153.65-37.35 141.47-13.79 141.44 0 137.34 0ZM158.55-14.45L158.55-14.45Q158.55-20 159.12-22.19 159.68-24.39 160.5-25.67 161.31-26.95 162.7-27.81L162.7-27.81Q165.49-29.54 170.93-29.54L170.93-29.54Q178.79-29.54 181.04-25.66L181.04-25.66Q182.38-23.32 182.58-19.04L182.58-19.04Q182.65-17.02 182.65-14.58 182.65-12.13 182.49-10.02 182.33-7.91 181.87-6.23 181.41-4.54 180.58-3.28 179.75-2.03 178.38-1.17L178.38-1.17Q175.69 0.49 170.54 0.49L170.54 0.49Q162.83 0.49 160.41-3.32L160.41-3.32Q158.92-5.69 158.68-9.96L158.68-9.96Q158.55-12.01 158.55-14.45ZM165.19-4.27Q166.07-3.61 167.4-3.28 168.74-2.95 171.04-2.95 173.35-2.95 174.92-3.61 176.5-4.27 177.29-5.73 178.09-7.18 178.29-9.5 178.5-11.82 178.5-14.89 178.5-17.97 178.32-20.02 178.13-22.07 177.4-23.41L177.4-23.41Q175.94-26.05 170.88-26.05L170.88-26.05Q165.54-26.05 163.93-23.41L163.93-23.41Q163.12-22.07 162.9-20 162.68-17.92 162.68-15.48 162.68-13.04 162.74-11.34 162.8-9.64 163.06-8.29 163.32-6.93 163.82-5.93 164.32-4.93 165.19-4.27ZM214.66-29.05L214.66-12.79Q214.66-4.74 215.12-0.2L215.12-0.2 211.48 0.1 210.9-3.34Q208.04-0.98 204.23 0.07L204.23 0.07Q202.72 0.49 200.63 0.49 198.54 0.49 196.89-0.01 195.25-0.51 194.27-1.61L194.27-1.61Q192.49-3.59 192.49-8.81L192.49-8.81 192.49-29.05 196.59-29.05 196.59-9.47Q196.59-5.96 197.27-4.94 197.96-3.93 198.9-3.58 199.84-3.22 201.13-3.22 202.42-3.22 203.63-3.43 204.84-3.64 206.06-4.03L206.06-4.03Q208.63-4.86 210.7-6.3L210.7-6.3 210.7-6.32Q210.6-8.18 210.6-13.55L210.6-13.55 210.6-29.05 214.66-29.05ZM236.41-25.51L236.41-25.51Q233.28-25.51 230.03-22.39L230.03-22.39 230.03 0 225.98 0 225.98-29.05 229.55-29.05 229.94-25.2Q231.08-26.98 232.41-27.98 233.74-28.98 234.6-29.2L234.6-29.2Q235.82-29.54 236.92-29.54 238.02-29.54 239.68-29.1L239.68-29.1 239.31-25.22Q238.07-25.51 236.41-25.51ZM274.19-11.72L274.19-11.72Q273.19-11.67 270.69-11.67 268.19-11.67 263.77-12.33L263.77-12.33 263.77 0 259.62 0 259.62-37.21Q266.72-37.87 273.75-37.87L273.75-37.87Q279.66-37.87 282.03-35.21L282.03-35.21Q284.03-32.96 284.03-27.78L284.03-27.78 284.03-24.9Q284.03-20.9 283.15-18.07L283.15-18.07Q281.27-12.16 274.19-11.72ZM273.93-34.35L273.93-34.35Q267.24-34.35 263.77-34.08L263.77-34.08 263.77-15.77Q268.04-15.21 271.37-15.21 274.71-15.21 276.16-15.69 277.61-16.16 278.42-17.29L278.42-17.29Q279.78-19.19 279.78-24.85L279.78-24.85 279.78-27.88Q279.78-31.37 278.42-32.86L278.42-32.86Q277.1-34.35 273.93-34.35ZM314.16-5.03L315.35-1.54Q310.3 0.49 304.2 0.49L304.2 0.49Q300.66 0.49 298.19-0.24L298.19-0.24Q294.26-1.37 292.97-4.88L292.97-4.88Q291.77-8.18 291.77-14.65L291.77-14.65 291.77-15.89Q291.77-23.63 294.99-26.76L294.99-26.76Q297.9-29.54 304.68-29.54L304.68-29.54Q311.3-29.54 313.72-26.27L313.72-26.27Q314.89-24.68 315.27-22.42 315.65-20.17 315.65-18.12L315.65-18.12Q315.65-14.92 315.5-13.16L315.5-13.16Q312.06-13.01 309.32-13.01L309.32-13.01Q309.32-13.01 305.39-13.01L305.39-13.01Q299.24-13.01 295.92-13.55L295.92-13.55Q295.92-7.93 297.34-5.71L297.34-5.71Q299.07-3 304.24-3 309.42-3 314.16-5.03L314.16-5.03ZM295.92-16.41L311.52-16.41 311.52-18.75Q311.52-22.58 310.03-24.22L310.03-24.22Q308.37-26.05 304.29-26.05L304.29-26.05Q299.41-26.05 297.63-23.93L297.63-23.93Q295.92-21.9 295.92-16.41L295.92-16.41ZM336.32-25.51L336.32-25.51Q333.2-25.51 329.95-22.39L329.95-22.39 329.95 0 325.9 0 325.9-29.05 329.46-29.05 329.85-25.2Q331-26.98 332.33-27.98 333.66-28.98 334.52-29.2L334.52-29.2Q335.74-29.54 336.84-29.54 337.93-29.54 339.59-29.1L339.59-29.1 339.23-25.22Q337.98-25.51 336.32-25.51ZM355.56-38.48Q353.68-38.48 352.7-37.66 351.73-36.84 351.73-34.44 351.73-32.03 352.63-29.05L352.63-29.05 359.54-29.05 359.54-25.66 352.58-25.66 352.58 0 348.65 0 348.65-25.66 343.79-25.66 343.79-28.66 348.6-29.05Q348.28-29.71 347.99-31.91 347.7-34.11 347.7-35.06L347.7-35.06Q347.7-41.99 355.8-41.99L355.8-41.99Q358.73-41.99 361.34-41.36L361.34-41.36 360.61-37.72Q357.44-38.48 355.56-38.48ZM389.15-5.03L390.35-1.54Q385.29 0.49 379.19 0.49L379.19 0.49Q375.65 0.49 373.18-0.24L373.18-0.24Q369.25-1.37 367.96-4.88L367.96-4.88Q366.76-8.18 366.76-14.65L366.76-14.65 366.76-15.89Q366.76-23.63 369.98-26.76L369.98-26.76Q372.89-29.54 379.68-29.54L379.68-29.54Q386.29-29.54 388.71-26.27L388.71-26.27Q389.88-24.68 390.26-22.42 390.64-20.17 390.64-18.12L390.64-18.12Q390.64-14.92 390.49-13.16L390.49-13.16Q387.05-13.01 384.32-13.01L384.32-13.01Q384.32-13.01 380.38-13.01L380.38-13.01Q374.23-13.01 370.91-13.55L370.91-13.55Q370.91-7.93 372.33-5.71L372.33-5.71Q374.06-3 379.24-3 384.41-3 389.15-5.03L389.15-5.03ZM370.91-16.41L386.51-16.41 386.51-18.75Q386.51-22.58 385.02-24.22L385.02-24.22Q383.36-26.05 379.29-26.05L379.29-26.05Q374.4-26.05 372.62-23.93L372.62-23.93Q370.91-21.9 370.91-16.41L370.91-16.41ZM419.86-4.59L421.08-1.29Q417.69 0.49 411.78 0.49L411.78 0.49Q408.29 0.49 406.65-0.05L406.65-0.05Q402.48-1.46 401.18-4.86L401.18-4.86Q400.28-7.23 400.13-9.96 399.99-12.7 399.99-14.58 399.99-16.46 400.08-18.25 400.18-20.04 400.56-21.7 400.94-23.36 401.72-24.79 402.5-26.22 403.84-27.29L403.84-27.29Q406.75-29.54 412.19-29.54L412.19-29.54Q416.2-29.54 419.57-28.37L419.57-28.37Q420.47-28.08 420.93-27.81L420.93-27.81 419.71-24.19Q415.03-26 412.04-26 409.04-26 407.64-25.32 406.24-24.63 405.46-23.24L405.46-23.24Q404.14-20.85 404.14-14.45L404.14-14.45Q404.14-11.89 404.31-9.78 404.48-7.67 405.16-6.15L405.16-6.15Q406.6-3.03 411.11-3.03 415.61-3.03 419.86-4.59L419.86-4.59ZM443-4.57L444.39-1.39Q440.41 0.49 437.04 0.49L437.04 0.49Q430.94 0.49 430.11-4.74L430.11-4.74Q429.92-5.98 429.92-8.35L429.92-8.35 429.92-25.66 426.4-25.66 426.4-28.66 429.92-29.05 430.55-35.69 433.94-35.69 433.94-29.05 442.42-29.05 442.42-25.66 433.94-25.66 433.94-8.42Q433.94-5.42 434.38-4.59L434.38-4.59Q435.19-3.08 437.61-3.08 440.02-3.08 443-4.57L443-4.57ZM460.04-2.47L461.65-5.88Q467.19-2.95 472.49-2.95L472.49-2.95Q478.64-2.95 479.69-6.88L479.69-6.88Q480.03-8.18 480.03-9.86L480.03-9.86 480.03-10.82Q480.03-12.52 479.79-13.57 479.54-14.62 478.76-15.28L478.76-15.28Q477.49-16.38 472.76-17.11L472.76-17.11Q468.53-17.77 466.92-18.36 465.31-18.95 464.27-19.64 463.24-20.34 462.5-21.39L462.5-21.39Q460.99-23.58 460.99-27.47L460.99-27.47 460.99-27.71Q460.99-35.77 467.68-37.35L467.68-37.35Q469.8-37.84 472.49-37.84L472.49-37.84 472.81-37.84Q479.08-37.84 483.06-36.04L483.06-36.04 481.79-32.3Q476.98-34.38 472.93-34.38L472.93-34.38 472.71-34.38Q468.24-34.38 466.56-32.69L466.56-32.69Q465.14-31.27 465.14-27.78L465.14-27.78 465.14-27.69Q465.14-23.71 467.34-22.46L467.34-22.46Q468.83-21.66 472.67-21.04 476.52-20.43 478.4-20.01 480.28-19.58 481.6-18.6L481.6-18.6Q484.33-16.55 484.33-10.82L484.33-10.82 484.33-10.5Q484.33-1.73 477.27-0.05L477.27-0.05Q475.1 0.49 473.17 0.49 471.24 0.49 469.67 0.35 468.09 0.22 466.46-0.12L466.46-0.12Q462.63-0.9 460.04-2.47L460.04-2.47ZM496.46-1.73L496.46-1.73 496.46 11.11 492.41 11.11 492.41-29.05 495.7-29.05 496.17-26.05Q499.02-28.2 503.61-29.2L503.61-29.2Q505.27-29.54 507.23-29.54 509.18-29.54 510.68-29.03 512.18-28.52 513.16-27.6 514.14-26.68 514.67-25.42 515.21-24.15 515.48-22.66L515.48-22.66Q515.82-20.61 515.82-16.11L515.82-16.11 515.82-15.55Q515.82-9.84 515.43-7.64 515.04-5.44 514.41-4.02 513.77-2.59 512.65-1.59L512.65-1.59Q510.33 0.49 505.47 0.49 500.61 0.49 496.46-1.73ZM496.46-22.92L496.46-5.08Q500.61-3.17 505.18-3.17L505.18-3.17Q508.16-3.17 509.52-4.27L509.52-4.27Q511.38-5.79 511.6-11.33L511.6-11.33Q511.67-13.16 511.67-15.53L511.67-15.53 511.67-16.06Q511.67-21.68 510.69-23.58L510.69-23.58Q509.6-25.76 506.15-25.76L506.15-25.76 505.79-25.76Q502.2-25.76 498.34-23.97L498.34-23.97Q497.22-23.46 496.46-22.92L496.46-22.92ZM548.09-19.41L548.09-10.3Q548.09-5.44 548.56-0.2L548.56-0.2 544.95 0.1 544.33-3.3Q541.23-0.81 536.13 0.17L536.13 0.17Q534.47 0.49 533.18 0.49 531.88 0.49 530.89 0.37 529.91 0.24 528.99-0.11 528.08-0.46 527.29-1.1 526.51-1.73 525.93-2.78L525.93-2.78Q524.68-5 524.68-8.12 524.68-11.23 525.13-12.95 525.58-14.67 526.63-15.82L526.63-15.82Q528.71-18.09 533.62-18.09 538.52-18.09 544.09-16.24L544.09-16.24 544.09-19.41Q544.09-24.71 539.72-25.68L539.72-25.68Q538.3-26 536.47-26L536.47-26Q532.3-26 527.81-24.34L527.81-24.34 526.9-27.86Q528.15-28.69 533.25-29.35L533.25-29.35Q534.86-29.54 537.12-29.54 539.38-29.54 541.55-29 543.72-28.47 545.16-27.25L545.16-27.25Q548.09-24.83 548.09-19.41L548.09-19.41ZM543.99-13.18L543.99-13.18Q538.28-14.62 533.45-14.62L533.45-14.62Q530.47-14.62 529.49-12.92L529.49-12.92Q528.83-11.72 528.83-9.38 528.83-7.03 529.09-5.98 529.34-4.93 529.93-4.25L529.93-4.25Q531.08-2.95 533.71-2.95L533.71-2.95Q537.84-2.95 541.89-5.08L541.89-5.08Q543.14-5.71 544.14-6.49L544.14-6.49Q543.99-9.13 543.99-13.18ZM578.12-4.59L579.34-1.29Q575.95 0.49 570.04 0.49L570.04 0.49Q566.55 0.49 564.91-0.05L564.91-0.05Q560.74-1.46 559.44-4.86L559.44-4.86Q558.54-7.23 558.39-9.96 558.25-12.7 558.25-14.58 558.25-16.46 558.35-18.25 558.44-20.04 558.82-21.7 559.2-23.36 559.98-24.79 560.76-26.22 562.11-27.29L562.11-27.29Q565.01-29.54 570.46-29.54L570.46-29.54Q574.46-29.54 577.83-28.37L577.83-28.37Q578.73-28.08 579.2-27.81L579.2-27.81 577.97-24.19Q573.29-26 570.3-26 567.31-26 565.9-25.32 564.5-24.63 563.72-23.24L563.72-23.24Q562.4-20.85 562.4-14.45L562.4-14.45Q562.4-11.89 562.57-9.78 562.74-7.67 563.42-6.15L563.42-6.15Q564.86-3.03 569.37-3.03 573.87-3.03 578.12-4.59L578.12-4.59ZM609.91-5.03L611.1-1.54Q606.05 0.49 599.94 0.49L599.94 0.49Q596.4 0.49 593.94-0.24L593.94-0.24Q590.01-1.37 588.71-4.88L588.71-4.88Q587.52-8.18 587.52-14.65L587.52-14.65 587.52-15.89Q587.52-23.63 590.74-26.76L590.74-26.76Q593.65-29.54 600.43-29.54L600.43-29.54Q607.05-29.54 609.47-26.27L609.47-26.27Q610.64-24.68 611.02-22.42 611.4-20.17 611.4-18.12L611.4-18.12Q611.4-14.92 611.25-13.16L611.25-13.16Q607.81-13.01 605.07-13.01L605.07-13.01Q605.07-13.01 601.14-13.01L601.14-13.01Q594.99-13.01 591.67-13.55L591.67-13.55Q591.67-7.93 593.08-5.71L593.08-5.71Q594.82-3 599.99-3 605.17-3 609.91-5.03L609.91-5.03ZM591.67-16.41L607.27-16.41 607.27-18.75Q607.27-22.58 605.78-24.22L605.78-24.22Q604.12-26.05 600.04-26.05L600.04-26.05Q595.16-26.05 593.38-23.93L593.38-23.93Q591.67-21.9 591.67-16.41L591.67-16.41ZM639.56 0L629.51-37.35 634-37.35 641.22-9.13 642.49-3.17 643.91-9.13 651.43-37.35 656.29-37.35 665.25-2.98 666.54-9.23 673.43-37.35 677.82-37.35 668.25 0 662.05 0 654.9-26.71 653.8-33.01 652.65-26.71 645.28 0 639.56 0ZM686.92-36.01L686.92-36.01Q685.29-36.01 684.83-36.47L684.83-36.47Q684.09-37.23 684.09-38.56 684.09-39.89 684.25-40.47 684.41-41.04 684.73-41.36L684.73-41.36Q685.31-41.94 686.52-41.94 687.73-41.94 688.26-41.82 688.78-41.7 689.12-41.36L689.12-41.36Q689.71-40.77 689.71-39.44 689.71-38.11 689.57-37.54 689.44-36.96 689.12-36.62L689.12-36.62Q688.51-36.01 686.92-36.01ZM685 0L684.95-29.05 688.95-29.05 688.95 0 685 0ZM713.61-4.57L715-1.39Q711.02 0.49 707.65 0.49L707.65 0.49Q701.55 0.49 700.72-4.74L700.72-4.74Q700.52-5.98 700.52-8.35L700.52-8.35 700.52-25.66 697.01-25.66 697.01-28.66 700.52-29.05 701.16-35.69 704.55-35.69 704.55-29.05 713.02-29.05 713.02-25.66 704.55-25.66 704.55-8.42Q704.55-5.42 704.99-4.59L704.99-4.59Q705.79-3.08 708.21-3.08 710.63-3.08 713.61-4.57L713.61-4.57ZM735.26-25.76L735.26-25.76Q730.4-25.76 725.62-22.95L725.62-22.95 725.62 0 721.56 0 721.56-41.55 725.52-41.94 725.52-26.05Q728.03-28.2 732.06-29.15L732.06-29.15Q733.67-29.54 735.87-29.54 738.07-29.54 739.73-29.04 741.39-28.54 742.36-27.44L742.36-27.44Q744.12-25.46 744.12-20.24L744.12-20.24 744.12 0 740.02 0 740.02-19.51Q740.02-23.02 739.34-24.04 738.65-25.05 737.71-25.4 736.77-25.76 735.26-25.76ZM767.09-17.21L767.09-37.35 771.19-37.35 771.19-17.38Q771.19-11.47 771.7-9.33 772.22-7.18 772.89-6.09 773.56-5 774.63-4.35L774.63-4.35Q776.66-3.1 780.21-3.1 783.77-3.1 785.56-3.71 787.35-4.32 788.34-5.91 789.33-7.5 789.67-10.28 790.02-13.06 790.02-17.38L790.02-17.38 790.02-37.35 794.12-37.35 794.12-17.53Q794.12-11.25 793.65-8.87 793.19-6.49 792.37-4.83 791.55-3.17 790.06-2L790.06-2Q786.94 0.49 780.74 0.49L780.74 0.49Q771.51 0.49 768.82-4.79L768.82-4.79Q767.33-7.74 767.16-12.6L767.16-12.6Q767.09-14.82 767.09-17.21L767.09-17.21ZM803.05-2.39L804.81-5.76Q809.84-2.95 814.92-2.95L814.92-2.95Q819.14-2.95 819.87-5.96L819.87-5.96Q820.12-6.98 820.12-8.46 820.12-9.94 819.77-10.75 819.43-11.57 818.63-11.98 817.82-12.38 816.49-12.57 815.16-12.77 813.11-13.12 811.06-13.48 809.35-13.92 807.64-14.36 806.44-15.19L806.44-15.19Q803.9-16.97 804-21.19L804-21.19 804-21.8Q804-26.25 806.93-28.13L806.93-28.13Q809.76-29.98 816.28-29.39L816.28-29.39Q820.73-28.98 823.36-27.86L823.36-27.86 822.22-24.17Q819.29-25.42 815.18-25.98L815.18-25.98Q813.91-26.15 812.8-26.15 811.69-26.15 810.79-25.98 809.89-25.81 809.28-25.34L809.28-25.34Q808.1-24.39 808.05-21.8L808.05-21.8Q807.98-18.75 809.76-17.92L809.76-17.92Q811.47-17.11 813.82-16.81 816.16-16.5 817.65-16.27 819.14-16.04 820.36-15.65 821.58-15.26 822.46-14.4L822.46-14.4Q824.29-12.67 824.24-8.37L824.24-8.37Q824.12-0.88 817.99 0.17L817.99 0.17Q816.14 0.49 814.28 0.49 812.42 0.49 810.87 0.26 809.32 0.02 807.91-0.39L807.91-0.39Q805.22-1.15 803.05-2.39L803.05-2.39Z" opacity="1" transform="matrix(1,0,0,1,0,0)" fill="#49beb7" class="slogan-text-1" data-fill-palette-color="secondary" id="text-1"></path></svg></g></svg></g></svg></g></svg></g><g><svg viewBox="0 0 100.49051921089342 99.4381887231915" height="99.4381887231915" width="100.49051921089342"><g><svg xmlns="http://www.w3.org/2000/svg" xmlns:xlink="http://www.w3.org/1999/xlink" version="1.1" x="0" y="0" viewBox="0.103 0.803 99.88600000000001 98.84" enable-background="new 0 0 100 100" xml:space="preserve" height="99.4381887231915" width="100.49051921089342" class="icon-icon-0" data-fill-palette-color="accent" id="icon-0"><path d="M88.5 64.15L88.381 23h-0.107L49.829 0.803 11.631 23h-0.106l0.183 41.104L12 66.939v0.049l-0.293-2.969L0.103 70.68l50.09 28.963 49.796-28.92L88.5 64.15zM21.015 68.875l-6.403-3.697 0.021-7.363 6.403 3.697L21.015 68.875zM21.057 54.154l-6.403-3.697 0.021-7.358 6.403 3.697L21.057 54.154zM21.099 39.433l-6.403-3.697 0.021-7.358 6.403 3.697L21.099 39.433zM85.293 65.174l-6.404 3.695-0.02-7.357 6.402-3.697L85.293 65.174zM85.25 50.458l-6.402 3.697-0.021-7.363 6.404-3.697L85.25 50.458zM85.188 28.378l0.021 7.358-6.402 3.697-0.021-7.358L85.188 28.378zM72.439 57.855l-6.404 3.695-0.02-7.363 6.402-3.697L72.439 57.855zM53.225 68.947l-0.02-7.363 6.406-3.699 0.021 7.363L53.225 68.947zM59.654 72.605l0.02 7.357-6.406 3.701-0.021-7.359L59.654 72.605zM53.184 54.227l-0.021-7.358 6.408-3.7 0.021 7.358L53.184 54.227zM72.377 35.775l0.021 7.358-6.404 3.697-0.021-7.357L72.377 35.775zM40.334 43.169l6.408 3.699-0.021 7.358-6.408-3.7L40.334 43.169zM40.292 57.891l6.408 3.699-0.021 7.357-6.408-3.699L40.292 57.891zM40.25 72.605l6.409 3.699-0.021 7.365-6.408-3.701L40.25 72.605zM27.528 35.775l6.403 3.697L33.91 46.83l-6.403-3.697L27.528 35.775zM27.486 50.496l6.403 3.697-0.021 7.357-6.404-3.695L27.486 50.496zM33.833 69l0.003-0.047-0.018 7.283-6.396-3.706-0.004-0.009 0.1-7.365L34 68.852v0.055L33.909 69H33.833zM66.088 79.949L66.057 68.91l6.404-3.697 0.031 11.039L66.088 79.949z" fill="#49beb7" data-fill-palette-color="accent"></path></svg></g></svg></g></svg></g><defs></defs></svg><rect width="395.52" height="75.83062659647312" fill="none" stroke="none" visibility="hidden"></rect></g></svg></g></svg>