<svg xmlns="http://www.w3.org/2000/svg" version="1.1" xmlns:xlink="http://www.w3.org/1999/xlink" xmlns:svgjs="http://svgjs.dev/svgjs" width="2000" height="2000" viewBox="0 0 2000 2000"><g transform="matrix(1,0,0,1,-0.9999999999998863,-0.9999999999998863)"><svg viewBox="0 0 280 280" data-background-color="#d2d6dc" preserveAspectRatio="xMidYMid meet" height="2000" width="2000" xmlns="http://www.w3.org/2000/svg" xmlns:xlink="http://www.w3.org/1999/xlink"><g id="tight-bounds" transform="matrix(1,0,0,1,0.13999999999998636,0.13999999999998636)"><svg viewBox="0 0 279.72 279.72" height="279.72" width="279.72"><g><svg viewBox="0 0 279.72 279.72" height="279.72" width="279.72"><g><svg viewBox="0 0 279.72 279.72" height="279.72" width="279.72"><g id="textblocktransform"><svg viewBox="0 0 279.72 279.72" height="279.72" width="279.72" id="textblock"><g><svg viewBox="0 0 279.72 279.72" height="279.72" width="279.72"><g transform="matrix(1,0,0,1,57.446704652707865,57.446704652707865)"><svg viewBox="0 0 164.8265906945843 164.8265906945843" height="164.8265906945843" width="164.8265906945843"><g id="icon-0"><circle r="82" cx="82.41329534729215" cy="82.41329534729215" fill="#000000" data-fill-palette-color="accent"></circle><svg xmlns="http://www.w3.org/2000/svg" xmlns:xlink="http://www.w3.org/1999/xlink" version="1.1" x="24.72398860418764" y="24.723988604187646" viewBox="0.103 0.803 99.88600000000001 98.84" enable-background="new 0 0 100 100" xml:space="preserve" height="115.378613486209" width="115.378613486209" class="icon-xg-0" data-fill-palette-color="quaternary" id="xg-0"><path d="M88.5 64.15L88.381 23h-0.107L49.829 0.803 11.631 23h-0.106l0.183 41.104L12 66.939v0.049l-0.293-2.969L0.103 70.68l50.09 28.963 49.796-28.92L88.5 64.15zM21.015 68.875l-6.403-3.697 0.021-7.363 6.403 3.697L21.015 68.875zM21.057 54.154l-6.403-3.697 0.021-7.358 6.403 3.697L21.057 54.154zM21.099 39.433l-6.403-3.697 0.021-7.358 6.403 3.697L21.099 39.433zM85.293 65.174l-6.404 3.695-0.02-7.357 6.402-3.697L85.293 65.174zM85.25 50.458l-6.402 3.697-0.021-7.363 6.404-3.697L85.25 50.458zM85.188 28.378l0.021 7.358-6.402 3.697-0.021-7.358L85.188 28.378zM72.439 57.855l-6.404 3.695-0.02-7.363 6.402-3.697L72.439 57.855zM53.225 68.947l-0.02-7.363 6.406-3.699 0.021 7.363L53.225 68.947zM59.654 72.605l0.02 7.357-6.406 3.701-0.021-7.359L59.654 72.605zM53.184 54.227l-0.021-7.358 6.408-3.7 0.021 7.358L53.184 54.227zM72.377 35.775l0.021 7.358-6.404 3.697-0.021-7.357L72.377 35.775zM40.334 43.169l6.408 3.699-0.021 7.358-6.408-3.7L40.334 43.169zM40.292 57.891l6.408 3.699-0.021 7.357-6.408-3.699L40.292 57.891zM40.25 72.605l6.409 3.699-0.021 7.365-6.408-3.701L40.25 72.605zM27.528 35.775l6.403 3.697L33.91 46.83l-6.403-3.697L27.528 35.775zM27.486 50.496l6.403 3.697-0.021 7.357-6.404-3.695L27.486 50.496zM33.833 69l0.003-0.047-0.018 7.283-6.396-3.706-0.004-0.009 0.1-7.365L34 68.852v0.055L33.909 69H33.833zM66.088 79.949L66.057 68.91l6.404-3.697 0.031 11.039L66.088 79.949z" fill="#ffffff" data-fill-palette-color="quaternary"></path></svg></g></svg></g><g id="text-0"><path d="M29.145 105.393l-2.009 6.19-27.136-8.807 1.911-5.889c0.653-2.011 1.476-3.503 2.471-4.474 0.996-0.978 2.19-1.516 3.58-1.615 1.393-0.106 3.004 0.138 4.835 0.732v0l9.983 3.24c1.921 0.623 3.459 1.401 4.615 2.334 1.151 0.924 1.886 2.063 2.204 3.418 0.314 1.346 0.162 2.969-0.454 4.871zM4.041 99.906l21.606 7.011 0.696-2.144c0.449-1.384 0.5-2.454 0.152-3.21-0.344-0.748-1.01-1.35-1.998-1.807-0.989-0.457-2.21-0.921-3.666-1.393v0l-8.809-2.859c-1.404-0.455-2.57-0.738-3.5-0.846-0.932-0.102-1.696 0.082-2.292 0.553-0.596 0.471-1.105 1.357-1.527 2.657v0z" fill="#000000" data-fill-palette-color="primary"></path><path d="M38.407 84.483l-1.832 3.288-17.784-9.909 1.831-3.288 2.522 1.405c-0.72-1.265-1.082-2.327-1.086-3.185-0.001-0.865 0.181-1.624 0.545-2.277v0c0.046-0.083 0.089-0.16 0.129-0.232 0.04-0.071 0.103-0.164 0.19-0.279v0l3.636 2.026c-0.243 0.184-0.489 0.416-0.739 0.697-0.247 0.275-0.463 0.579-0.648 0.912v0c-0.285 0.511-0.426 1.043-0.423 1.597 0.003 0.554 0.228 1.225 0.677 2.012v0z" fill="#000000" data-fill-palette-color="primary"></path><path d="M50.417 67.779v0c-1.005 1.242-2.024 2.005-3.058 2.288-1.024 0.282-2.114 0.175-3.269-0.322-1.159-0.492-2.423-1.291-3.792-2.399v0l-3.617-2.925c-1.406-1.138-2.463-2.22-3.171-3.248-0.708-1.028-1.022-2.077-0.942-3.149 0.076-1.067 0.601-2.203 1.577-3.409v0c1.078-1.332 2.146-2.091 3.204-2.275 1.059-0.184 2.185 0.04 3.378 0.673 1.193 0.633 2.512 1.533 3.955 2.701v0l1.285 1.039-5.048 6.241 3.172 2.566c0.64 0.517 1.207 0.881 1.703 1.09 0.5 0.203 0.955 0.252 1.364 0.146 0.404-0.11 0.775-0.374 1.113-0.792v0c0.355-0.439 0.521-0.86 0.498-1.264-0.028-0.398-0.205-0.795-0.532-1.191-0.323-0.401-0.749-0.815-1.277-1.243v0l-0.96-0.777 2.303-2.847 0.603 0.488c1.586 1.283 2.563 2.633 2.93 4.049 0.367 1.417-0.106 2.936-1.419 4.56zM38.484 61.025l0.849 0.686 2.726-3.37-1.428-1.155c-0.656-0.53-1.238-0.94-1.747-1.229-0.509-0.289-0.969-0.413-1.38-0.369-0.411 0.043-0.816 0.311-1.214 0.802v0c-0.385 0.476-0.567 0.928-0.546 1.356 0.02 0.419 0.251 0.885 0.692 1.399 0.451 0.513 1.133 1.14 2.048 1.88z" fill="#000000" data-fill-palette-color="primary"></path><path d="M64.589 53.472v0c-0.613 0.518-1.303 0.797-2.069 0.838-0.756 0.042-1.5-0.095-2.23-0.413-0.735-0.323-1.359-0.788-1.873-1.396v0c-0.82-0.972-1.348-1.923-1.582-2.855-0.239-0.937-0.269-1.873-0.089-2.809 0.18-0.935 0.497-1.888 0.951-2.858 0.463-0.969 0.967-1.964 1.512-2.984v0l-0.927-1.099c-0.531-0.629-1.005-1.122-1.424-1.482-0.419-0.349-0.828-0.533-1.227-0.552-0.4-0.01-0.823 0.174-1.27 0.551v0c-0.395 0.333-0.637 0.689-0.727 1.068-0.091 0.388-0.05 0.794 0.121 1.219 0.167 0.419 0.442 0.855 0.823 1.307v0l0.658 0.78-2.945 2.299c-1.415-1.751-2.093-3.354-2.032-4.812 0.065-1.452 0.887-2.844 2.466-4.178v0c1.543-1.303 2.997-1.805 4.362-1.506 1.355 0.298 2.706 1.244 4.052 2.84v0l6 7.108c0.408 0.483 0.816 0.94 1.224 1.371 0.403 0.425 0.79 0.81 1.161 1.155 0.371 0.345 0.717 0.676 1.038 0.992v0l-2.634 2.224c-0.293-0.242-0.668-0.549-1.124-0.92-0.446-0.371-0.841-0.723-1.185-1.056v0c0.336 0.767 0.473 1.63 0.411 2.59-0.067 0.964-0.547 1.824-1.441 2.578zM63.627 50.039v0c0.286-0.241 0.485-0.548 0.599-0.919 0.119-0.376 0.189-0.751 0.211-1.126 0.022-0.375 0.014-0.653-0.024-0.834v0l-3.723-4.412c-0.236 0.627-0.445 1.234-0.625 1.822-0.184 0.583-0.308 1.137-0.372 1.662-0.059 0.531-0.028 1.042 0.094 1.536 0.132 0.494 0.387 0.964 0.764 1.41v0c0.531 0.629 1.062 1.026 1.593 1.192 0.536 0.161 1.031 0.051 1.483-0.331z" fill="#000000" data-fill-palette-color="primary"></path><path d="M82.338 40.842l-3.094 1.612-9.407-18.055 3.094-1.612 0.895 1.719c0.251-1.005 0.652-1.862 1.203-2.57 0.554-0.718 1.217-1.278 1.988-1.681v0c0.669-0.349 1.357-0.493 2.064-0.431 0.703 0.055 1.393 0.451 2.069 1.188v0c0.231-1.132 0.631-2.077 1.202-2.835 0.568-0.764 1.268-1.362 2.101-1.796v0c0.585-0.305 1.189-0.44 1.814-0.404 0.624 0.035 1.244 0.283 1.86 0.745 0.607 0.458 1.171 1.188 1.692 2.189v0l7.39 14.183-3.057 1.593-7.277-13.966c-0.456-0.874-0.904-1.389-1.344-1.543-0.441-0.154-0.899-0.107-1.376 0.142v0c-0.458 0.239-0.87 0.618-1.235 1.138-0.362 0.526-0.634 1.124-0.814 1.793v0c0.044 0.084 0.088 0.169 0.131 0.253 0.044 0.084 0.093 0.178 0.147 0.281v0l7.389 14.183-3.057 1.593-7.277-13.966c-0.456-0.874-0.904-1.389-1.344-1.543-0.434-0.157-0.893-0.11-1.375 0.142v0c-0.458 0.239-0.864 0.615-1.218 1.129-0.35 0.52-0.628 1.121-0.832 1.802v0z" fill="#000000" data-fill-palette-color="primary"></path><path d="M118.646 26.917l-10.903 2.855-7.225-27.599 3.848-1.008 6.502 24.837 7.055-1.847z" fill="#000000" data-fill-palette-color="primary"></path><path d="M132.069 25.699v0c-0.8 0.057-1.522-0.123-2.166-0.541-0.636-0.411-1.156-0.961-1.559-1.648-0.404-0.694-0.634-1.438-0.691-2.231v0c-0.09-1.268 0.044-2.348 0.403-3.239 0.359-0.898 0.886-1.672 1.583-2.322 0.697-0.65 1.514-1.233 2.452-1.75 0.945-0.511 1.939-1.018 2.98-1.521v0l-0.102-1.434c-0.059-0.821-0.151-1.499-0.278-2.036-0.133-0.529-0.355-0.919-0.667-1.169-0.317-0.243-0.768-0.344-1.351-0.303v0c-0.515 0.037-0.921 0.182-1.216 0.435-0.302 0.26-0.509 0.612-0.62 1.056-0.112 0.437-0.147 0.951-0.105 1.541v0l0.073 1.018-3.734 0.123c-0.113-2.248 0.285-3.944 1.191-5.085 0.908-1.135 2.392-1.776 4.455-1.923v0c2.014-0.144 3.485 0.307 4.411 1.352 0.919 1.039 1.453 2.599 1.602 4.682v0l0.662 9.278c0.045 0.631 0.105 1.24 0.181 1.828 0.075 0.581 0.162 1.12 0.259 1.618 0.097 0.498 0.182 0.969 0.254 1.413v0l-3.439 0.245c-0.094-0.368-0.216-0.837-0.366-1.405-0.142-0.562-0.254-1.079-0.336-1.551v0c-0.18 0.817-0.578 1.596-1.193 2.335-0.622 0.74-1.517 1.151-2.683 1.234zM133.313 22.358v0c0.373-0.027 0.715-0.157 1.026-0.39 0.317-0.234 0.595-0.496 0.833-0.785 0.238-0.29 0.396-0.519 0.473-0.688v0l-0.411-5.759c-0.56 0.367-1.086 0.735-1.578 1.105-0.492 0.362-0.919 0.737-1.28 1.124-0.36 0.394-0.636 0.826-0.827 1.296-0.184 0.477-0.255 1.007-0.214 1.59v0c0.059 0.821 0.254 1.454 0.585 1.901 0.339 0.446 0.803 0.648 1.393 0.606z" fill="#000000" data-fill-palette-color="primary"></path><path d="M154.49 25.848l-3.748-0.439 2.37-20.221 3.748 0.44-0.234 1.995c0.749-0.549 1.558-0.998 2.428-1.348 0.869-0.35 1.794-0.468 2.773-0.353v0c0.817 0.096 1.417 0.382 1.799 0.858 0.383 0.469 0.622 1.028 0.718 1.676 0.102 0.649 0.115 1.301 0.037 1.956v0l-1.918 16.37-3.739-0.438 1.792-15.287c0.085-0.723 0.046-1.295-0.117-1.718-0.163-0.423-0.572-0.673-1.226-0.75v0c-0.419-0.049-0.872 0.024-1.361 0.221-0.481 0.19-0.951 0.436-1.412 0.738v0z" fill="#000000" data-fill-palette-color="primary"></path><path d="M177.531 31.183v0c-1.631-0.525-2.656-1.515-3.073-2.97-0.424-1.458-0.176-3.617 0.744-6.479v0l1.208-3.758c0.475-1.476 1.038-2.806 1.69-3.988 0.652-1.183 1.443-2.043 2.373-2.58 0.925-0.545 2.048-0.606 3.369-0.181v0c0.647 0.208 1.193 0.544 1.636 1.008 0.444 0.464 0.807 0.977 1.09 1.54v0l2.901-9.02 3.593 1.155-8.734 27.159-3.593-1.155 0.4-1.243c-0.564 0.311-1.144 0.525-1.738 0.641-0.597 0.122-1.218 0.08-1.866-0.129zM179.34 28.658v0c0.337 0.108 0.716 0.162 1.137 0.162 0.421 0 0.86-0.063 1.314-0.188v0l4.087-12.711c-0.238-0.327-0.521-0.635-0.848-0.926-0.321-0.289-0.705-0.505-1.152-0.649v0c-0.829-0.266-1.517-0.048-2.064 0.654-0.547 0.703-1 1.611-1.358 2.724v0l-1.758 5.467c-0.287 0.893-0.497 1.722-0.629 2.487-0.136 0.756-0.115 1.391 0.062 1.906 0.184 0.516 0.587 0.874 1.209 1.074z" fill="#000000" data-fill-palette-color="primary"></path><path d="M210.637 47.999l-2.541-1.999 18.048-22.101 3.078 2.422-10.349 21.305 18.293-15.055 3.047 2.396-17.223 22.75-2.525-1.986 12.56-16.477-16.6 13.298-1.772-1.393 9.041-19.246z" fill="#000000" data-fill-palette-color="primary"></path><path d="M232.448 68.967v0c-0.503-0.625-0.765-1.322-0.788-2.088-0.024-0.757 0.132-1.497 0.466-2.22 0.34-0.727 0.821-1.34 1.441-1.838v0c0.991-0.796 1.955-1.301 2.893-1.513 0.943-0.217 1.879-0.223 2.81-0.021 0.931 0.203 1.876 0.543 2.835 1.02 0.958 0.486 1.94 1.014 2.947 1.583v0l1.121-0.9c0.641-0.515 1.146-0.978 1.515-1.388 0.359-0.411 0.553-0.815 0.582-1.213 0.019-0.399-0.154-0.827-0.521-1.283v0c-0.324-0.403-0.674-0.654-1.049-0.753-0.386-0.1-0.793-0.069-1.222 0.092-0.423 0.157-0.866 0.421-1.327 0.791v0l-0.795 0.639-2.227-2.999c1.784-1.373 3.404-2.011 4.859-1.916 1.45 0.1 2.822 0.956 4.117 2.567v0c1.265 1.574 1.732 3.04 1.4 4.397-0.331 1.347-1.31 2.675-2.937 3.982v0l-7.251 5.827c-0.493 0.396-0.959 0.793-1.399 1.189-0.435 0.393-0.829 0.771-1.183 1.134-0.354 0.363-0.693 0.701-1.017 1.014v0l-2.16-2.688c0.249-0.287 0.565-0.654 0.947-1.101 0.381-0.437 0.743-0.824 1.084-1.159v0c-0.775 0.317-1.641 0.433-2.599 0.348-0.962-0.09-1.81-0.591-2.542-1.503zM235.903 68.088v0c0.234 0.292 0.536 0.499 0.904 0.621 0.373 0.128 0.746 0.207 1.121 0.238 0.374 0.031 0.652 0.03 0.834-0.003v0l4.501-3.616c-0.621-0.251-1.223-0.474-1.807-0.668-0.578-0.198-1.129-0.336-1.652-0.413-0.529-0.072-1.041-0.053-1.537 0.058-0.497 0.12-0.973 0.363-1.429 0.729v0c-0.641 0.515-1.051 1.037-1.23 1.564-0.174 0.532-0.076 1.029 0.295 1.49z" fill="#000000" data-fill-palette-color="primary"></path><path d="M245.251 87.646l-1.806-3.303 17.863-9.767 1.806 3.302-2.533 1.385c1.454 0.065 2.545 0.325 3.274 0.779 0.732 0.46 1.277 1.018 1.636 1.674v0c0.046 0.084 0.088 0.161 0.128 0.233 0.039 0.072 0.084 0.175 0.134 0.31v0l-3.651 1.996c-0.026-0.303-0.092-0.636-0.196-0.997-0.101-0.355-0.243-0.7-0.426-1.034v0c-0.281-0.513-0.656-0.916-1.127-1.209-0.47-0.293-1.158-0.46-2.063-0.499v0z" fill="#000000" data-fill-palette-color="primary"></path><path d="M252.657 104.866l-1.198-3.578 27.063-9.06 1.198 3.579-16.133 5.401 10.092 2.419 1.25 3.733-9.063-2.011-10.285 8.348-1.198-3.579 8.677-6.916-3.013-0.809z" fill="#000000" data-fill-palette-color="primary"></path><path d="M9.293 143.941c0-1.808 1.466-3.274 3.274-3.275 1.808 0 3.274 1.466 3.274 3.275 0 1.808-1.466 3.274-3.274 3.274-1.808 0-3.274-1.466-3.274-3.274z" fill="#000000" data-fill-palette-color="primary"></path><path d="M266.077 143.941c0-1.808 1.466-3.274 3.274-3.275 1.808 0 3.274 1.466 3.274 3.275 0 1.808-1.466 3.274-3.274 3.274-1.808 0-3.274-1.466-3.274-3.274z" fill="#000000" data-fill-palette-color="primary"></path></g><g id="text-1"><path d="M26.184 213.062l-1.297-2.172 11.953-7.139 4.509 7.549-1.839 1.098-3.211-5.377-3.057 1.826 2.851 4.772-1.848 1.104-2.85-4.773z" fill="#000000" data-fill-palette-color="primary"></path><path d="M40.893 216.534l-8.659 5.949-1.375-2 8.659-5.95zM43.582 215.008v0c-0.376 0.258-0.76 0.341-1.154 0.248-0.384-0.091-0.69-0.302-0.917-0.632v0c-0.235-0.342-0.328-0.711-0.278-1.108 0.059-0.395 0.276-0.722 0.651-0.98v0c0.387-0.266 0.772-0.353 1.156-0.262 0.394 0.093 0.708 0.31 0.943 0.652v0c0.227 0.331 0.311 0.694 0.253 1.088-0.049 0.397-0.267 0.728-0.654 0.994z" fill="#000000" data-fill-palette-color="primary"></path><path d="M34.32 225.223l7.986-6.297c0.397 0.284 0.873 0.684 1.427 1.2 0.559 0.512 1.121 1.125 1.685 1.841v0c0.531 0.673 0.884 1.308 1.06 1.904 0.171 0.601 0.196 1.166 0.076 1.694-0.121 0.528-0.372 1.033-0.753 1.516-0.376 0.478-0.845 0.939-1.405 1.381v0l-4.638 3.657-1.509-1.915 4.341-3.423c0.443-0.349 0.796-0.676 1.06-0.978 0.268-0.298 0.445-0.589 0.531-0.874 0.092-0.289 0.093-0.58 0.002-0.872-0.086-0.296-0.258-0.607-0.515-0.932v0c-0.194-0.246-0.41-0.487-0.648-0.723-0.238-0.236-0.419-0.41-0.541-0.521v0l-6.655 5.248z" fill="#000000" data-fill-palette-color="primary"></path><path d="M47.277 232.376v0c-0.772 0.737-1.204 1.501-1.294 2.293-0.091 0.791 0.174 1.512 0.793 2.161v0c0.268 0.28 0.508 0.507 0.72 0.681 0.217 0.178 0.399 0.315 0.546 0.409v0l4.361-4.161c-0.037-0.256-0.136-0.556-0.296-0.902-0.151-0.345-0.364-0.663-0.642-0.953v0c-0.61-0.64-1.273-0.9-1.987-0.782-0.72 0.123-1.453 0.541-2.201 1.254zM59.554 230.305l-11.047 10.541c-0.442-0.246-0.96-0.592-1.555-1.039-0.591-0.442-1.163-0.953-1.717-1.534v0c-0.577-0.605-0.998-1.233-1.262-1.884-0.273-0.651-0.397-1.308-0.372-1.971 0.025-0.663 0.199-1.318 0.522-1.964 0.318-0.642 0.782-1.254 1.392-1.836v0c0.6-0.573 1.217-1.02 1.849-1.342 0.633-0.312 1.262-0.49 1.889-0.533 0.626-0.043 1.235 0.053 1.825 0.288 0.581 0.235 1.132 0.625 1.654 1.172v0c0.347 0.364 0.613 0.731 0.796 1.1 0.184 0.36 0.318 0.693 0.403 0.998v0l3.645-3.478z" fill="#000000" data-fill-palette-color="primary"></path><path d="M63.232 243.582v0c1.093-0.42 2.186-0.857 3.28-1.311 1.094-0.454 2.147-0.945 3.159-1.472v0l2.203 1.736c-1.467 0.653-2.95 1.277-4.448 1.872-1.503 0.6-3.057 1.171-4.663 1.715v0l-3.383 4.294-1.987-1.565 3.358-4.263c0.162-1.699 0.355-3.356 0.58-4.971 0.226-1.605 0.485-3.198 0.777-4.777v0l2.331 1.837c-0.275 1.108-0.511 2.242-0.707 3.403-0.196 1.161-0.363 2.328-0.5 3.502z" fill="#000000" data-fill-palette-color="primary"></path><path d="M74.94 254.892v0c-0.459 0.691-0.979 1.252-1.559 1.683-0.578 0.44-1.185 0.739-1.82 0.896-0.635 0.157-1.287 0.173-1.955 0.048-0.672-0.12-1.319-0.387-1.942-0.8v0c-0.623-0.414-1.117-0.906-1.482-1.475-0.369-0.563-0.603-1.168-0.704-1.815-0.101-0.647-0.063-1.324 0.113-2.032 0.173-0.702 0.488-1.398 0.948-2.089v0c0.459-0.691 0.979-1.252 1.559-1.682 0.577-0.425 1.185-0.715 1.826-0.869 0.641-0.154 1.293-0.17 1.955-0.048 0.658 0.127 1.293 0.394 1.905 0.801v0c0.612 0.406 1.106 0.89 1.485 1.452 0.374 0.567 0.612 1.174 0.712 1.821 0.101 0.647 0.067 1.318-0.102 2.014-0.167 0.706-0.48 1.404-0.939 2.095zM72.859 253.509v0c0.58-0.872 0.85-1.684 0.811-2.437-0.035-0.758-0.387-1.359-1.055-1.803v0c-0.668-0.444-1.359-0.536-2.071-0.275-0.709 0.256-1.353 0.819-1.932 1.692v0c-0.583 0.878-0.859 1.699-0.829 2.462 0.031 0.764 0.381 1.368 1.05 1.812v0c0.668 0.444 1.361 0.533 2.077 0.266 0.716-0.267 1.366-0.839 1.949-1.717z" fill="#000000" data-fill-palette-color="primary"></path><path d="M87.224 255.603l-4.867 8.94c-0.471-0.117-1.065-0.297-1.784-0.541-0.725-0.247-1.481-0.586-2.27-1.015v0c-0.741-0.403-1.303-0.849-1.688-1.337-0.382-0.479-0.623-0.989-0.722-1.531-0.094-0.539-0.06-1.105 0.1-1.699 0.155-0.597 0.401-1.206 0.739-1.827v0l2.814-5.169 2.132 1.16-2.628 4.829c-0.54 0.991-0.779 1.779-0.717 2.362 0.056 0.58 0.442 1.065 1.159 1.455v0c0.257 0.14 0.538 0.277 0.844 0.413 0.3 0.132 0.531 0.219 0.693 0.262v0l4.062-7.463z" fill="#000000" data-fill-palette-color="primary"></path><path d="M95.478 259.369l-1.212 1.706c-0.162-0.138-0.389-0.313-0.682-0.525-0.293-0.211-0.654-0.412-1.083-0.601v0c-0.249-0.11-0.521-0.201-0.817-0.272-0.296-0.071-0.508-0.113-0.636-0.125v0l-3.404 7.695-2.22-0.981 4.047-9.152c0.501 0.028 1.101 0.115 1.803 0.262 0.71 0.143 1.457 0.388 2.24 0.735v0c0.143 0.063 0.31 0.148 0.501 0.254 0.185 0.104 0.369 0.215 0.555 0.335 0.179 0.116 0.352 0.238 0.519 0.364 0.164 0.117 0.293 0.219 0.389 0.305z" fill="#000000" data-fill-palette-color="primary"></path><path d="M105.916 258.964v0c1.928 0.601 3.299 1.412 4.113 2.434 0.805 1.027 0.976 2.287 0.511 3.781v0c-0.243 0.779-0.587 1.405-1.034 1.879-0.447 0.473-0.987 0.804-1.622 0.99-0.635 0.187-1.355 0.247-2.162 0.182-0.804-0.072-1.692-0.26-2.666-0.564v0l-1.207-0.376-1.459 4.684-2.415-0.752 4.082-13.108c0.597 0.051 1.246 0.16 1.949 0.329 0.696 0.167 1.333 0.34 1.91 0.521zM105.43 261.109v0c-0.61-0.19-1.119-0.327-1.528-0.412v0l-1.41 4.529 1.168 0.364c1.162 0.362 2.11 0.475 2.843 0.34 0.724-0.131 1.228-0.65 1.511-1.559v0c0.135-0.435 0.168-0.824 0.096-1.167-0.078-0.345-0.237-0.647-0.476-0.906-0.246-0.262-0.559-0.491-0.94-0.688-0.382-0.19-0.804-0.357-1.264-0.501z" fill="#000000" data-fill-palette-color="primary"></path><path d="M110.312 269.439v0c0.194-0.904 0.498-1.67 0.911-2.298 0.412-0.621 0.889-1.11 1.431-1.466 0.543-0.356 1.128-0.589 1.756-0.698 0.627-0.102 1.24-0.089 1.838 0.04v0c1.416 0.304 2.426 0.98 3.028 2.028 0.603 1.047 0.717 2.442 0.343 4.184v0c-0.029 0.133-0.063 0.279-0.104 0.436-0.036 0.166-0.074 0.314-0.116 0.445v0l-6.781-1.456c-0.111 0.839 0.045 1.54 0.466 2.103 0.415 0.562 1.114 0.949 2.098 1.16v0c0.578 0.124 1.118 0.184 1.62 0.181 0.502-0.004 0.901-0.036 1.2-0.098v0l-0.111 2.021c-0.139 0.033-0.333 0.061-0.581 0.084-0.242 0.025-0.515 0.035-0.821 0.033-0.312-0.004-0.642-0.023-0.989-0.056-0.348-0.033-0.698-0.087-1.05-0.163v0c-0.904-0.194-1.663-0.5-2.276-0.916-0.608-0.409-1.076-0.899-1.406-1.471-0.329-0.571-0.53-1.206-0.603-1.903-0.068-0.689-0.019-1.419 0.147-2.19zM113.014 268.903l4.418 0.948c0.07-0.326 0.09-0.645 0.06-0.957-0.022-0.318-0.1-0.602-0.234-0.854-0.132-0.258-0.312-0.474-0.539-0.647-0.232-0.182-0.524-0.311-0.877-0.387v0c-0.366-0.079-0.7-0.077-1.002 0.004-0.308 0.073-0.579 0.203-0.814 0.389-0.24 0.178-0.444 0.402-0.614 0.671-0.161 0.264-0.294 0.542-0.398 0.833z" fill="#000000" data-fill-palette-color="primary"></path><path d="M129.178 267.495l-0.689 1.976c-0.194-0.088-0.461-0.193-0.801-0.314-0.34-0.121-0.743-0.213-1.208-0.276v0c-0.27-0.036-0.556-0.048-0.86-0.034-0.304 0.014-0.519 0.033-0.646 0.057v0l-1.125 8.34-2.406-0.325 1.338-9.916c0.489-0.112 1.09-0.196 1.804-0.251 0.722-0.06 1.507-0.033 2.356 0.081v0c0.155 0.021 0.339 0.056 0.552 0.106 0.206 0.048 0.415 0.104 0.626 0.166 0.204 0.062 0.404 0.13 0.6 0.205 0.19 0.067 0.343 0.129 0.459 0.185z" fill="#000000" data-fill-palette-color="primary"></path><path d="M135.171 262.624v0c0.563 0.039 1.055 0.125 1.475 0.257 0.42 0.132 0.736 0.246 0.948 0.342v0l-0.609 1.972c-0.216-0.124-0.471-0.231-0.765-0.32-0.301-0.089-0.624-0.146-0.969-0.17v0c-0.387-0.027-0.72 0.008-0.999 0.104-0.273 0.097-0.497 0.238-0.674 0.424-0.17 0.193-0.299 0.429-0.387 0.709-0.088 0.28-0.143 0.59-0.167 0.929v0l-0.049 0.702 3.805 0.266-0.141 2.025-3.806-0.266-0.591 8.455-2.421-0.169 0.784-11.223c0.094-1.35 0.521-2.387 1.281-3.111 0.766-0.717 1.861-1.025 3.285-0.926z" fill="#000000" data-fill-palette-color="primary"></path><path d="M137.429 273.098v0c-0.002-0.925 0.133-1.738 0.403-2.439 0.271-0.694 0.633-1.273 1.088-1.736 0.455-0.463 0.978-0.814 1.569-1.054 0.591-0.232 1.193-0.349 1.805-0.35v0c1.448-0.003 2.578 0.444 3.388 1.34 0.811 0.896 1.218 2.235 1.222 4.017v0c0 0.136-0.003 0.286-0.01 0.449 0 0.17-0.006 0.323-0.019 0.459v0l-6.936 0.013c0.07 0.843 0.37 1.495 0.901 1.956 0.524 0.461 1.29 0.691 2.296 0.69v0c0.592-0.001 1.132-0.057 1.622-0.167 0.489-0.11 0.873-0.226 1.152-0.349v0l0.32 1.999c-0.129 0.061-0.313 0.13-0.551 0.205-0.231 0.075-0.496 0.144-0.795 0.206-0.306 0.062-0.632 0.113-0.979 0.154-0.347 0.041-0.7 0.063-1.06 0.064v0c-0.925 0.002-1.731-0.136-2.419-0.414-0.68-0.271-1.242-0.65-1.685-1.139-0.443-0.489-0.774-1.066-0.992-1.732-0.212-0.659-0.319-1.383-0.321-2.172zM139.956 272.001l4.519-0.008c-0.001-0.333-0.049-0.649-0.145-0.948-0.089-0.306-0.225-0.567-0.409-0.785-0.184-0.224-0.405-0.397-0.664-0.519-0.265-0.129-0.578-0.193-0.939-0.192v0c-0.374 0.001-0.7 0.073-0.979 0.216-0.285 0.137-0.523 0.321-0.713 0.552-0.197 0.225-0.349 0.487-0.457 0.786-0.101 0.293-0.172 0.592-0.213 0.898z" fill="#000000" data-fill-palette-color="primary"></path><path d="M148.896 272.865v0c-0.067-0.772-0.011-1.507 0.168-2.206 0.179-0.691 0.471-1.303 0.875-1.836 0.404-0.533 0.916-0.97 1.536-1.31 0.62-0.333 1.329-0.534 2.128-0.603v0c0.989-0.085 1.94 0.014 2.852 0.296v0l-0.358 2.027c-0.288-0.091-0.611-0.162-0.97-0.213-0.359-0.051-0.739-0.059-1.139-0.024v0c-0.948 0.082-1.644 0.442-2.087 1.081-0.444 0.632-0.619 1.49-0.526 2.574v0c0.089 1.037 0.394 1.839 0.915 2.409 0.52 0.569 1.332 0.806 2.436 0.711v0c0.413-0.036 0.816-0.111 1.209-0.227 0.399-0.116 0.74-0.248 1.02-0.396v0l0.509 1.973c-0.253 0.158-0.645 0.315-1.178 0.471-0.533 0.155-1.083 0.257-1.653 0.306v0c-0.894 0.077-1.685 0.005-2.373-0.215-0.681-0.214-1.259-0.547-1.734-0.997-0.476-0.45-0.851-1.002-1.126-1.654-0.268-0.659-0.437-1.382-0.504-2.167z" fill="#000000" data-fill-palette-color="primary"></path><path d="M158.948 272.914l-1.393-8.991 2.336-0.775 0.488 3.145 3.699-0.573 0.311 2.005-3.699 0.574 0.654 4.223c0.129 0.833 0.356 1.41 0.681 1.732 0.317 0.316 0.795 0.424 1.434 0.325v0c0.437-0.068 0.816-0.175 1.137-0.321 0.321-0.146 0.577-0.275 0.766-0.387v0l0.688 1.844c-0.257 0.164-0.6 0.344-1.031 0.542-0.43 0.197-0.951 0.344-1.563 0.438v0c-0.739 0.115-1.373 0.11-1.901-0.015-0.527-0.118-0.965-0.346-1.314-0.684-0.354-0.33-0.63-0.756-0.827-1.276-0.203-0.512-0.358-1.114-0.466-1.806z" fill="#000000" data-fill-palette-color="primary"></path><path d="M176 271.656v0c0.872-0.239 1.47-0.566 1.794-0.979 0.319-0.405 0.404-0.879 0.255-1.424v0c-0.088-0.321-0.233-0.578-0.434-0.769-0.202-0.198-0.454-0.355-0.753-0.471-0.308-0.12-0.665-0.212-1.07-0.277-0.404-0.058-0.86-0.102-1.369-0.132v0c-0.511-0.036-1.01-0.097-1.499-0.181-0.487-0.078-0.935-0.223-1.346-0.435-0.409-0.205-0.772-0.486-1.088-0.844-0.31-0.359-0.545-0.831-0.705-1.414v0c-0.333-1.213-0.174-2.279 0.476-3.198 0.649-0.925 1.694-1.586 3.137-1.982v0c0.846-0.232 1.62-0.342 2.321-0.33 0.706 0.004 1.277 0.066 1.712 0.187v0l-0.215 2.184c-0.508-0.129-1.041-0.183-1.6-0.163-0.561 0.013-1.116 0.095-1.667 0.245v0c-0.662 0.182-1.14 0.457-1.434 0.827-0.292 0.376-0.37 0.81-0.235 1.302v0c0.081 0.295 0.209 0.531 0.385 0.709 0.184 0.182 0.413 0.324 0.688 0.425 0.27 0.109 0.575 0.195 0.916 0.256 0.346 0.053 0.717 0.096 1.114 0.128v0c0.694 0.063 1.323 0.145 1.886 0.244 0.563 0.099 1.061 0.269 1.494 0.511 0.438 0.233 0.806 0.547 1.105 0.944 0.306 0.396 0.545 0.908 0.718 1.538v0c0.335 1.22 0.163 2.279-0.514 3.176-0.676 0.905-1.84 1.584-3.492 2.037v0c-0.557 0.153-1.075 0.256-1.554 0.311-0.479 0.054-0.91 0.077-1.293 0.069-0.383-0.008-0.72-0.028-1.011-0.061-0.286-0.041-0.521-0.086-0.703-0.135v0l0.17-2.194c0.402 0.101 0.927 0.165 1.576 0.192 0.644 0.035 1.389-0.064 2.235-0.296z" fill="#000000" data-fill-palette-color="primary"></path><path d="M188.703 263.943v0c-0.375-1.021-0.896-1.732-1.565-2.132-0.659-0.396-1.5-0.406-2.521-0.031v0c-0.217 0.08-0.437 0.171-0.659 0.275-0.223 0.103-0.437 0.229-0.644 0.377v0l2.069 5.64c0.253 0.059 0.568 0.088 0.944 0.088 0.376 0 0.753-0.07 1.13-0.208v0c0.83-0.304 1.332-0.811 1.507-1.519 0.175-0.709 0.087-1.539-0.261-2.49zM191.035 263.044v0c0.276 0.753 0.431 1.482 0.465 2.187 0.038 0.696-0.045 1.338-0.249 1.927-0.198 0.587-0.522 1.104-0.974 1.552-0.455 0.457-1.028 0.812-1.717 1.065v0c-0.466 0.171-0.915 0.27-1.346 0.298-0.438 0.03-0.806 0.024-1.104-0.019v0l1.401 3.821-2.279 0.836-4.78-13.033c0.419-0.299 0.947-0.626 1.584-0.983 0.635-0.363 1.332-0.684 2.091-0.962v0c0.779-0.286 1.518-0.423 2.218-0.412 0.708 0.015 1.361 0.167 1.959 0.455 0.598 0.288 1.128 0.705 1.59 1.253 0.47 0.552 0.851 1.223 1.141 2.015z" fill="#000000" data-fill-palette-color="primary"></path><path d="M198.145 263.566v0c0.683-0.322 1.182-0.603 1.497-0.842v0l-1.15-2.435c-0.14 0.021-0.333 0.067-0.578 0.137-0.251 0.073-0.515 0.175-0.791 0.307v0c-0.246 0.116-0.483 0.251-0.712 0.403-0.229 0.153-0.421 0.327-0.578 0.521-0.153 0.185-0.249 0.396-0.288 0.633-0.042 0.23 0.001 0.481 0.129 0.751v0c0.247 0.523 0.58 0.805 0.999 0.848 0.428 0.046 0.918-0.061 1.472-0.323zM194.098 255.449v0c0.726-0.343 1.378-0.538 1.957-0.585 0.582-0.057 1.101 0.007 1.556 0.19 0.449 0.187 0.845 0.484 1.189 0.894 0.35 0.406 0.657 0.889 0.921 1.448v0l2.717 5.756c-0.303 0.233-0.772 0.564-1.404 0.99-0.639 0.43-1.386 0.846-2.241 1.25v0c-0.572 0.27-1.121 0.461-1.647 0.575-0.526 0.113-1.011 0.128-1.456 0.044-0.448-0.089-0.859-0.282-1.233-0.579-0.367-0.3-0.685-0.733-0.952-1.299v0c-0.258-0.547-0.372-1.058-0.339-1.532 0.038-0.477 0.182-0.921 0.431-1.332 0.252-0.405 0.594-0.773 1.024-1.104 0.433-0.325 0.908-0.609 1.425-0.853v0c0.246-0.116 0.508-0.221 0.787-0.315 0.276-0.1 0.585-0.186 0.928-0.258v0l-0.17-0.359c-0.122-0.258-0.267-0.487-0.437-0.685-0.169-0.198-0.372-0.351-0.61-0.457-0.232-0.109-0.495-0.15-0.791-0.122-0.292 0.018-0.626 0.115-1.001 0.292v0c-0.51 0.241-0.96 0.499-1.35 0.773-0.389 0.274-0.695 0.52-0.915 0.736v0l-1.118-1.649c0.239-0.226 0.6-0.513 1.083-0.861 0.488-0.351 1.037-0.67 1.646-0.958z" fill="#000000" data-fill-palette-color="primary"></path><path d="M202.393 257.455v0c-0.387-0.671-0.648-1.361-0.781-2.069-0.13-0.702-0.125-1.38 0.015-2.035 0.141-0.654 0.419-1.266 0.837-1.836 0.42-0.564 0.978-1.047 1.672-1.448v0c0.86-0.496 1.763-0.809 2.709-0.939v0l0.534 1.988c-0.299 0.039-0.622 0.112-0.969 0.218-0.347 0.106-0.694 0.259-1.042 0.46v0c-0.825 0.476-1.302 1.097-1.433 1.863-0.134 0.76 0.07 1.612 0.614 2.554v0c0.52 0.901 1.136 1.5 1.848 1.795 0.712 0.296 1.548 0.166 2.509-0.387v0c0.359-0.207 0.692-0.447 0.999-0.718 0.313-0.275 0.565-0.538 0.757-0.79v0l1.296 1.572c-0.162 0.25-0.451 0.559-0.868 0.925-0.417 0.366-0.873 0.692-1.368 0.977v0c-0.777 0.449-1.524 0.719-2.241 0.81-0.707 0.094-1.372 0.038-1.993-0.168-0.622-0.207-1.195-0.547-1.72-1.022-0.522-0.484-0.981-1.067-1.375-1.75z" fill="#000000" data-fill-palette-color="primary"></path><path d="M210.566 252.643v0c-0.524-0.762-0.872-1.509-1.044-2.24-0.169-0.726-0.196-1.408-0.083-2.048 0.114-0.639 0.347-1.224 0.7-1.755 0.357-0.526 0.787-0.962 1.291-1.308v0c1.194-0.82 2.378-1.09 3.553-0.809 1.175 0.281 2.267 1.156 3.277 2.625v0c0.077 0.112 0.159 0.237 0.246 0.376 0.096 0.14 0.177 0.27 0.243 0.389v0l-5.717 3.929c0.534 0.656 1.15 1.025 1.849 1.105 0.693 0.085 1.455-0.158 2.285-0.728v0c0.488-0.335 0.902-0.686 1.244-1.053 0.342-0.367 0.593-0.68 0.753-0.938v0l1.393 1.468c-0.072 0.124-0.185 0.284-0.338 0.48-0.148 0.193-0.328 0.399-0.54 0.619-0.218 0.224-0.458 0.451-0.721 0.681-0.263 0.23-0.543 0.447-0.839 0.651v0c-0.762 0.524-1.505 0.865-2.229 1.024-0.714 0.161-1.392 0.165-2.035 0.012-0.642-0.153-1.241-0.443-1.797-0.869-0.547-0.424-1.044-0.961-1.491-1.611zM212.033 250.311l3.724-2.56c-0.189-0.275-0.407-0.508-0.655-0.7-0.246-0.202-0.507-0.341-0.781-0.417-0.278-0.081-0.559-0.099-0.841-0.053-0.292 0.044-0.586 0.168-0.884 0.372v0c-0.308 0.212-0.537 0.456-0.685 0.731-0.158 0.274-0.251 0.56-0.277 0.858-0.035 0.297-0.013 0.599 0.067 0.908 0.082 0.299 0.192 0.586 0.332 0.861z" fill="#000000" data-fill-palette-color="primary"></path><path d="M223.995 232.71l1.573-1.498c0.659 0.377 1.345 0.766 2.057 1.169 0.717 0.398 1.44 0.793 2.171 1.186 0.731 0.383 1.451 0.759 2.158 1.128 0.708 0.368 1.382 0.712 2.024 1.031v0c-0.354-0.658-0.758-1.363-1.211-2.115-0.448-0.747-0.922-1.516-1.422-2.308-0.495-0.796-1.005-1.597-1.528-2.403-0.523-0.816-1.045-1.615-1.565-2.398v0l1.891-1.8c1.395 2.146 2.685 4.26 3.871 6.342 1.185 2.083 2.251 4.134 3.196 6.153v0l-1.751 1.667c-2.62-1.243-5.388-2.686-8.306-4.33v0c0.761 1.519 1.459 2.982 2.093 4.387 0.639 1.41 1.245 2.787 1.818 4.128v0l-1.743 1.66c-1.98-1.035-3.979-2.197-5.997-3.488-2.017-1.29-4.063-2.685-6.138-4.183v0l1.965-1.871c0.747 0.547 1.512 1.105 2.297 1.672 0.785 0.558 1.565 1.101 2.341 1.631 0.771 0.534 1.526 1.04 2.264 1.52 0.738 0.489 1.43 0.925 2.074 1.306v0c-0.291-0.671-0.601-1.371-0.929-2.101-0.333-0.725-0.676-1.46-1.028-2.204-0.362-0.745-0.726-1.478-1.093-2.198-0.362-0.726-0.723-1.42-1.082-2.083z" fill="#000000" data-fill-palette-color="primary"></path><path d="M235.087 224.154l7.892 6.935-1.603 1.824-7.891-6.936zM232.949 221.921v0c0.342 0.301 0.517 0.653 0.523 1.058 0.006 0.395-0.123 0.743-0.388 1.044v0c-0.274 0.312-0.609 0.492-1.006 0.542-0.397 0.04-0.767-0.09-1.109-0.391v0c-0.352-0.31-0.532-0.662-0.538-1.057-0.007-0.404 0.127-0.762 0.401-1.074v0c0.265-0.301 0.596-0.472 0.993-0.512 0.397-0.05 0.771 0.08 1.124 0.39z" fill="#000000" data-fill-palette-color="primary"></path><path d="M241.736 225.958l-7.166-5.606 1.175-2.163 2.506 1.961 2.306-2.949 1.599 1.251-2.306 2.948 3.366 2.634c0.664 0.52 1.225 0.785 1.681 0.797 0.447 0.013 0.87-0.235 1.268-0.744v0c0.272-0.348 0.476-0.685 0.611-1.012 0.135-0.326 0.232-0.595 0.293-0.806v0l1.764 0.875c-0.075 0.295-0.203 0.662-0.382 1.1-0.179 0.438-0.459 0.901-0.84 1.389v0c-0.461 0.589-0.927 1.019-1.397 1.289-0.465 0.275-0.941 0.408-1.426 0.4-0.484 0.001-0.976-0.12-1.476-0.365-0.499-0.235-1.024-0.568-1.576-0.999z" fill="#000000" data-fill-palette-color="primary"></path><path d="M251.719 219.388l-1.351 2.018-12.62-8.449 1.011-2.244 4.323 2.893c0.074-0.27 0.183-0.573 0.327-0.91 0.14-0.332 0.307-0.642 0.499-0.93v0c0.469-0.701 0.955-1.218 1.457-1.553 0.508-0.331 1.03-0.518 1.566-0.56 0.536-0.042 1.089 0.042 1.66 0.252 0.565 0.207 1.15 0.512 1.755 0.917v0l4.908 3.286-1.356 2.025-4.594-3.075c-0.469-0.314-0.888-0.55-1.258-0.707-0.366-0.163-0.697-0.242-0.995-0.236-0.304 0.001-0.578 0.088-0.824 0.258-0.251 0.167-0.492 0.423-0.723 0.768v0c-0.182 0.271-0.337 0.564-0.465 0.879-0.129 0.315-0.219 0.553-0.271 0.716v0z" fill="#000000" data-fill-palette-color="primary"></path><path d="M261.922 202.02v0c-0.417 0.856-0.902 1.531-1.454 2.026-0.543 0.492-1.135 0.831-1.778 1.017-0.643 0.186-1.315 0.229-2.015 0.129-0.691-0.103-1.398-0.33-2.119-0.682v0l-7.82-3.815 1.119-2.292 7.599 3.708c0.568 0.277 1.086 0.45 1.551 0.518 0.463 0.075 0.878 0.054 1.245-0.062 0.364-0.11 0.684-0.294 0.962-0.552 0.28-0.264 0.517-0.595 0.711-0.992v0c0.194-0.397 0.309-0.788 0.344-1.171 0.036-0.384-0.015-0.753-0.152-1.107-0.134-0.361-0.373-0.7-0.717-1.02-0.341-0.325-0.795-0.626-1.363-0.904v0l-7.6-3.707 1.118-2.292 7.82 3.815c0.721 0.352 1.333 0.772 1.837 1.259 0.507 0.497 0.885 1.056 1.134 1.677 0.249 0.621 0.344 1.303 0.284 2.046-0.057 0.752-0.292 1.552-0.706 2.402z" fill="#000000" data-fill-palette-color="primary"></path><path d="M264.624 190.45v0c0.223-0.599 0.314-1.066 0.271-1.401-0.044-0.329-0.242-0.558-0.592-0.689v0c-0.325-0.121-0.65-0.075-0.976 0.137-0.322 0.221-0.733 0.623-1.233 1.206v0c-0.307 0.357-0.611 0.676-0.912 0.956-0.294 0.282-0.603 0.508-0.927 0.677-0.316 0.165-0.66 0.262-1.033 0.29-0.377 0.019-0.798-0.058-1.264-0.231v0c-0.898-0.335-1.485-0.931-1.761-1.788-0.276-0.857-0.2-1.86 0.228-3.007v0c0.214-0.573 0.473-1.104 0.779-1.593 0.299-0.491 0.548-0.848 0.747-1.071v0l1.692 1.098c-0.203 0.215-0.425 0.498-0.666 0.852-0.24 0.353-0.456 0.784-0.646 1.294v0c-0.173 0.465-0.235 0.874-0.184 1.226 0.046 0.344 0.235 0.577 0.566 0.701v0c0.159 0.059 0.313 0.084 0.462 0.074 0.149-0.01 0.299-0.063 0.451-0.158 0.161-0.1 0.338-0.244 0.531-0.433 0.191-0.183 0.402-0.416 0.632-0.701v0c0.406-0.466 0.774-0.851 1.105-1.156 0.338-0.302 0.674-0.533 1.009-0.691 0.339-0.15 0.686-0.223 1.04-0.222 0.353 0.008 0.749 0.094 1.188 0.258v0c0.943 0.351 1.527 0.965 1.753 1.84 0.225 0.875 0.097 1.959-0.385 3.253v0c-0.323 0.867-0.656 1.537-0.999 2.011-0.344 0.474-0.596 0.801-0.758 0.98v0l-1.756-1.1c0.26-0.288 0.541-0.644 0.845-1.068 0.303-0.424 0.568-0.939 0.793-1.544z" fill="#000000" data-fill-palette-color="primary"></path></g></svg></g></svg></g></svg></g></svg></g><defs></defs></svg><rect width="279.72" height="279.72" fill="none" stroke="none" visibility="hidden"></rect></g></svg></g></svg>